<svg width="906" height="867" viewBox="0 0 906 867" fill="none" xmlns="http://www.w3.org/2000/svg">
<path d="M386.085 91.1977C297.35 39.96 153.954 39.96 65.7912 91.1977C-22.3718 142.435 -21.8599 225.49 66.9153 276.717C155.691 327.945 299.046 327.955 387.209 276.717C475.372 225.48 474.86 142.425 386.085 91.1977Z" fill="#F5F5F5"/>
<path d="M130.84 174.373C160.568 157.21 208.614 157.21 238.143 174.373C264.238 189.538 267.139 213.024 246.965 230.127C263.245 229.123 280.086 232.224 292.552 239.451C314.382 252.127 314.262 272.693 292.301 285.379C270.341 298.066 234.831 298.066 213.011 285.379C195.647 275.282 192.184 260.207 202.552 248.083C177.531 251.696 149.99 247.852 130.498 236.53C100.96 219.367 101.111 191.535 130.84 174.373Z" fill="#E0E0E0"/>
<path d="M64.4261 217.059C57.862 213.275 47.2532 213.275 40.7293 217.059C34.2054 220.843 34.2455 226.995 40.8096 230.789C47.3736 234.583 57.9825 234.573 64.4963 230.789C71.0102 227.005 70.9901 220.863 64.4261 217.059Z" fill="#E0E0E0"/>
<path d="M68.5112 195.259L52.613 195.771L36.7248 195.309C36.0423 206.039 38.1299 216.979 41.0205 222.318C41.7065 223.692 42.8097 224.812 44.1721 225.52C48.8592 228.23 56.437 228.23 61.0941 225.52C62.4758 224.804 63.5808 223.65 64.2356 222.238C67.1161 216.848 69.1837 205.938 68.5112 195.259Z" fill="white"/>
<path d="M63.8138 188.745C70.0366 192.348 70.0767 198.17 63.884 201.793C57.6914 205.416 47.6445 205.396 41.4117 201.793C35.1789 198.19 35.1588 192.378 41.3414 188.745C47.5241 185.112 57.591 185.152 63.8138 188.745Z" fill="#EBEBEB"/>
<path d="M61.355 190.18C66.2128 192.981 66.2329 197.527 61.4152 200.338C56.5976 203.148 48.7388 203.138 43.881 200.338C39.0232 197.537 38.9931 192.981 43.8208 190.18C48.6485 187.38 56.4972 187.38 61.355 190.18Z" fill="#E0E0E0"/>
<g opacity="0.15">
<path d="M61.355 190.18C66.2128 192.981 66.2329 197.527 61.4152 200.338C56.5976 203.148 48.7388 203.138 43.881 200.338C39.0232 197.537 38.9931 192.981 43.8208 190.18C48.6485 187.38 56.4972 187.38 61.355 190.18Z" fill="black"/>
</g>
<path d="M78.7388 127.451C42.9276 139.174 42.6064 163.131 50.6359 180.194C52.6432 183.647 58.8359 185.503 64.2056 164.286L54.8714 165.49L65.8416 159.93L68.682 151.418L59.5485 152.101L71.141 147.223C73.265 140.482 75.8024 133.879 78.7388 127.451Z" fill="#7E57C2"/>
<path opacity="0.2" d="M78.7388 127.451C42.9276 139.174 42.6064 163.131 50.6359 180.194C52.6432 183.647 58.8359 185.503 64.2056 164.286L54.8714 165.49L65.8416 159.93L68.682 151.418L59.5485 152.101L71.141 147.223C73.265 140.482 75.8024 133.879 78.7388 127.451Z" fill="black"/>
<path opacity="0.2" d="M78.7388 127.451C42.9276 139.174 42.6064 163.131 50.6359 180.194C52.6432 183.647 58.8359 185.503 64.2056 164.286L54.8714 165.49L65.8416 159.93L68.682 151.418L59.5485 152.101L71.141 147.223C73.265 140.482 75.8024 133.879 78.7388 127.451Z" fill="white"/>
<path d="M68.6114 133.443C49.7323 147.775 48.026 164.205 53.3555 181.358C51.4686 166.253 49.4312 150.977 68.6114 133.443Z" fill="white"/>
<path d="M18.0864 151.78C53.3858 156.798 57.6715 179.01 52.9843 196.243C51.6594 199.786 46.2295 202.546 37.7083 183.727L46.6712 183.285L35.5404 179.933L31.4755 172.486L40.0971 171.592L28.4845 168.983C25.374 163.041 21.9014 157.296 18.0864 151.78Z" fill="#7E57C2"/>
<path opacity="0.2" d="M18.0864 151.78C53.3858 156.798 57.6715 179.01 52.9843 196.243C51.6594 199.786 46.2295 202.546 37.7083 183.727L46.6712 183.285L35.5404 179.933L31.4755 172.486L40.0971 171.592L28.4845 168.983C25.374 163.041 21.9014 157.296 18.0864 151.78Z" fill="white"/>
<path opacity="0.1" d="M18.0864 151.78C53.3858 156.798 57.6715 179.01 52.9843 196.243C51.6594 199.786 46.2295 202.546 37.7083 183.727L46.6712 183.285L35.5404 179.933L31.4755 172.486L40.0971 171.592L28.4845 168.983C25.374 163.041 21.9014 157.296 18.0864 151.78Z" fill="black"/>
<path d="M28.5146 155.684C48.4878 165.891 52.8036 180.917 50.6859 197.778C49.9331 183.396 49.2908 168.832 28.5146 155.684Z" fill="white"/>
<path d="M89.0766 160.12C56.698 160.652 50.3547 180.194 52.6431 196.253C53.436 199.605 58.0228 202.686 67.8187 186.637L59.7893 185.232L70.1974 183.456L74.6939 177.193L67.0258 175.436L77.7852 174.372C81.2544 169.396 85.0253 164.636 89.0766 160.12Z" fill="#7E57C2"/>
<path d="M79.2404 162.469C60.1003 169.434 54.5198 182.492 54.5499 197.929C56.8785 185.052 59.0364 171.994 79.2404 162.469Z" fill="white"/>
<path opacity="0.2" d="M89.0766 160.12C56.698 160.652 50.3547 180.194 52.6431 196.253C53.436 199.605 58.0228 202.686 67.8187 186.637L59.7893 185.232L70.1974 183.456L74.6939 177.193L67.0258 175.436L77.7852 174.372C81.2544 169.396 85.0253 164.636 89.0766 160.12Z" fill="white"/>
<path d="M223.78 115.236C233.917 122.262 245.339 127.15 253.81 136.584C269.658 154.219 269.989 182.583 257.614 202.797C245.239 223.011 222.104 235.075 198.578 237.845C173.897 240.756 148.003 233.941 128.642 218.364C109.281 202.787 96.9656 178.447 96.9756 153.606C96.9856 128.765 109.712 104.015 130.529 90.435C149.518 78.0597 176.798 74.5267 195.848 88.6886C205.483 95.8549 211.907 106.434 221.512 113.61C222.224 114.132 222.997 114.694 223.78 115.236Z" fill="#455A64"/>
<path opacity="0.2" d="M223.78 115.236C233.917 122.262 245.339 127.15 253.81 136.584C269.658 154.219 269.989 182.583 257.614 202.797C245.239 223.011 222.104 235.075 198.578 237.845C173.897 240.756 148.003 233.941 128.642 218.364C109.281 202.787 96.9656 178.447 96.9756 153.606C96.9856 128.765 109.712 104.015 130.529 90.435C149.518 78.0597 176.798 74.5267 195.848 88.6886C205.483 95.8549 211.907 106.434 221.512 113.61C222.224 114.132 222.997 114.694 223.78 115.236Z" fill="black"/>
<path opacity="0.1" d="M223.78 115.236C233.917 122.262 245.339 127.15 253.81 136.584C269.658 154.219 269.989 182.583 257.614 202.797C245.239 223.011 222.104 235.075 198.578 237.845C173.897 240.756 148.003 233.941 128.642 218.364C109.281 202.787 96.9656 178.447 96.9756 153.606C96.9856 128.765 109.712 104.015 130.529 90.435C149.518 78.0597 176.798 74.5267 195.848 88.6886C205.483 95.8549 211.907 106.434 221.512 113.61C222.224 114.132 222.997 114.694 223.78 115.236Z" fill="white"/>
<path opacity="0.1" d="M219.655 218.534C219.655 218.364 219.605 218.193 219.585 218.022C218.747 212.522 216.213 207.421 212.335 203.432C208.457 199.442 203.43 196.764 197.955 195.771C188.181 193.906 178.815 190.321 170.294 185.182C164.272 181.529 158.521 177.042 151.726 175.055C145.12 173.156 138.064 173.567 131.723 176.219C137.424 170.197 147.209 167.588 155.028 170.298C149.618 162.017 144.851 153.095 142.984 143.369C141.117 133.643 142.442 122.994 148.303 115.025C150.802 111.622 154.024 108.815 157.738 106.808C161.452 104.8 165.565 103.642 169.781 103.416C173.997 103.191 178.21 103.903 182.117 105.503C186.024 107.103 189.528 109.549 192.375 112.666C198.176 119.01 201.408 127.942 205.252 135.651C207.992 141.191 210.822 146.862 215.339 151.077C222.144 157.451 231.93 159.739 238.996 165.831C247.025 172.747 250.448 183.787 250.478 194.356C250.349 201.484 249.311 208.568 247.386 215.433C239.112 223.332 229.242 229.369 218.44 233.138C219.99 228.434 220.406 223.43 219.655 218.534Z" fill="black"/>
<path d="M110.174 150.144C110.485 132.984 116.873 116.492 128.201 103.599C139.53 90.7072 155.064 82.2512 172.041 79.7358C174.407 79.9643 176.754 80.3567 179.066 80.9101C161.22 81.8534 144.394 89.5211 131.973 102.37C119.552 115.219 112.459 132.296 112.121 150.164C111.659 173.248 122.971 196.855 142.372 213.215C157.578 226.032 177.782 234.533 199.983 237.594L198.558 237.775C196.55 238.016 194.543 238.176 192.536 238.287C172.803 234.463 154.948 226.333 141.127 214.68C121.275 197.969 109.712 173.841 110.174 150.144Z" fill="white"/>
<path d="M245.5 210.826C244.496 214.941 244.265 222.358 244.265 222.358L241.525 221.355C240.228 220.858 238.814 220.758 237.46 221.065C236.105 221.372 234.873 222.074 233.917 223.081L233.787 223.222C233.295 223.736 232.625 224.041 231.914 224.073C231.203 224.104 230.508 223.861 229.973 223.392C229.687 223.14 229.456 222.832 229.295 222.487C229.134 222.141 229.047 221.766 229.039 221.385L228.668 209.732L245.5 210.826Z" fill="#FFA8A7"/>
<path d="M234.931 254.105C240.612 260.187 251.07 265.496 258.668 260.317L257.815 262.244C250.217 267.433 239.749 262.124 234.078 256.042C228.407 249.959 232.071 245.754 226.972 240.364C225.046 238.517 223.536 236.279 222.546 233.8C222.777 233.218 222.998 232.465 223.259 231.592C224.366 234.122 225.912 236.436 227.825 238.427C232.934 243.827 229.25 248.032 234.931 254.105Z" fill="#F5F5F5"/>
<path d="M226.059 225.249C226.935 224.006 227.544 222.594 227.845 221.104C227.901 220.757 228.03 220.426 228.223 220.134C228.417 219.841 228.672 219.594 228.969 219.407L229.039 221.365C229.054 221.909 229.229 222.436 229.544 222.881C229.858 223.325 230.297 223.666 230.806 223.86C231.314 224.055 231.869 224.094 232.399 223.973C232.93 223.852 233.413 223.577 233.787 223.181L233.917 223.041C234.873 222.034 236.106 221.332 237.46 221.025C238.814 220.717 240.228 220.818 241.525 221.314L244.305 222.318C244.713 222.472 245.065 222.746 245.312 223.105C245.56 223.464 245.692 223.89 245.69 224.326C245.51 232.295 249.233 242.873 253.138 248.695C257.152 250.351 260.615 255.821 258.849 259.836L258.668 260.237C251.07 265.416 240.602 260.107 234.931 254.024C229.26 247.942 232.924 243.747 227.825 238.347C225.912 236.356 224.366 234.042 223.258 231.512C223.902 229.306 224.844 227.199 226.059 225.249Z" fill="#7E57C2"/>
<path opacity="0.3" d="M226.059 225.249C226.935 224.006 227.544 222.594 227.845 221.104C227.901 220.757 228.03 220.426 228.223 220.134C228.417 219.841 228.672 219.594 228.969 219.407L229.039 221.365C229.054 221.909 229.229 222.436 229.544 222.881C229.858 223.325 230.297 223.666 230.806 223.86C231.314 224.055 231.869 224.094 232.399 223.973C232.93 223.852 233.413 223.577 233.787 223.181L233.917 223.041C234.873 222.034 236.106 221.332 237.46 221.025C238.814 220.717 240.228 220.818 241.525 221.314L244.305 222.318C244.713 222.472 245.065 222.746 245.312 223.105C245.56 223.464 245.692 223.89 245.69 224.326C245.51 232.295 249.233 242.873 253.138 248.695C257.152 250.351 260.615 255.821 258.849 259.836L258.668 260.237C251.07 265.416 240.602 260.107 234.931 254.024C229.26 247.942 232.924 243.747 227.825 238.347C225.912 236.356 224.366 234.042 223.258 231.512C223.902 229.306 224.844 227.199 226.059 225.249Z" fill="black"/>
<path opacity="0.2" d="M226.059 225.249C226.935 224.006 227.544 222.594 227.845 221.104C227.901 220.757 228.03 220.426 228.223 220.134C228.417 219.841 228.672 219.594 228.969 219.407L229.039 221.365C229.054 221.909 229.229 222.436 229.544 222.881C229.858 223.325 230.297 223.666 230.806 223.86C231.314 224.055 231.869 224.094 232.399 223.973C232.93 223.852 233.413 223.577 233.787 223.181L233.917 223.041C234.873 222.034 236.106 221.332 237.46 221.025C238.814 220.717 240.228 220.818 241.525 221.314L244.305 222.318C244.713 222.472 245.065 222.746 245.312 223.105C245.56 223.464 245.692 223.89 245.69 224.326C245.51 232.295 249.233 242.873 253.138 248.695C257.152 250.351 260.615 255.821 258.849 259.836L258.668 260.237C251.07 265.416 240.602 260.107 234.931 254.024C229.26 247.942 232.924 243.747 227.825 238.347C225.912 236.356 224.366 234.042 223.258 231.512C223.902 229.306 224.844 227.199 226.059 225.249Z" fill="white"/>
<path d="M237.179 236.751C236.948 236.855 236.685 236.867 236.445 236.785C236.205 236.703 236.005 236.533 235.885 236.309C235.781 236.084 235.764 235.827 235.838 235.59C235.912 235.352 236.072 235.151 236.286 235.025C237.949 234.08 239.829 233.583 241.741 233.583C243.654 233.583 245.533 234.08 247.196 235.025C247.367 235.647 247.547 236.279 247.738 236.892C244.567 235.286 241.254 234.683 237.179 236.751Z" fill="white"/>
<path d="M235.774 232.435C235.559 232.481 235.336 232.455 235.137 232.362C234.938 232.268 234.776 232.112 234.674 231.917C234.573 231.722 234.538 231.5 234.576 231.283C234.613 231.067 234.72 230.869 234.881 230.719C236.625 229.763 238.585 229.27 240.573 229.286C242.562 229.301 244.514 229.826 246.243 230.809C246.35 231.478 246.48 232.131 246.634 232.766C243.322 231.01 239.98 230.317 235.774 232.435Z" fill="white"/>
<path d="M238.715 241.037C238.483 241.14 238.221 241.153 237.981 241.071C237.741 240.989 237.54 240.819 237.42 240.595C237.316 240.369 237.3 240.113 237.374 239.875C237.448 239.638 237.608 239.437 237.822 239.31C239.448 238.392 241.281 237.901 243.148 237.883C245.016 237.866 246.858 238.322 248.501 239.21C248.742 239.879 248.993 240.548 249.254 241.217C247.663 240.276 245.856 239.765 244.008 239.733C242.161 239.702 240.337 240.151 238.715 241.037Z" fill="white"/>
<path d="M253.138 248.775C257.152 250.431 260.615 255.901 258.849 259.916L258.668 260.317C251.18 265.416 240.933 260.317 235.192 254.376C239.979 245.001 249.976 247.34 253.138 248.775Z" fill="white"/>
<path d="M240.391 245.222C240.174 245.272 239.947 245.248 239.745 245.154C239.543 245.061 239.378 244.903 239.276 244.705C239.174 244.507 239.14 244.281 239.18 244.062C239.22 243.843 239.332 243.644 239.498 243.496C241.128 242.575 242.964 242.084 244.836 242.068C246.707 242.052 248.552 242.512 250.197 243.405C250.538 244.148 250.89 244.861 251.201 245.543C247.929 243.797 244.567 243.094 240.391 245.222Z" fill="white"/>
<path d="M257.443 233.971C258.156 238.156 260.966 245.011 260.966 245.011L258.046 245.182C256.659 245.251 255.325 245.73 254.21 246.557C253.096 247.384 252.251 248.522 251.783 249.829L251.712 250.02C251.473 250.686 250.985 251.233 250.351 251.548C249.716 251.862 248.985 251.919 248.31 251.706C247.948 251.596 247.612 251.411 247.325 251.164C247.039 250.917 246.806 250.613 246.644 250.271L241.625 239.752L257.443 233.971Z" fill="#FFA8A7"/>
<path d="M265.252 277.852C272.9 281.124 284.613 281.756 289.471 273.947V276.065C284.613 283.874 272.9 283.241 265.252 279.969C257.604 276.697 259.23 271.368 252.415 268.497C249.907 267.583 247.625 266.142 245.721 264.272C245.721 263.65 245.59 262.867 245.49 261.963C247.518 263.834 249.863 265.33 252.415 266.38C259.27 269.25 257.614 274.59 265.252 277.852Z" fill="#F5F5F5"/>
<path d="M245.49 254.988C245.801 253.498 245.801 251.961 245.49 250.471C245.396 250.132 245.378 249.776 245.437 249.43C245.496 249.083 245.631 248.753 245.831 248.464L246.684 250.23C246.918 250.72 247.291 251.129 247.757 251.407C248.223 251.685 248.76 251.819 249.302 251.792C249.844 251.766 250.366 251.579 250.802 251.257C251.238 250.934 251.569 250.49 251.753 249.979L251.823 249.789C252.291 248.482 253.136 247.344 254.251 246.516C255.365 245.689 256.7 245.211 258.086 245.142L261.097 244.971C261.538 244.949 261.975 245.064 262.349 245.299C262.722 245.534 263.014 245.879 263.185 246.286C266.196 253.653 273.914 261.833 279.836 265.577C284.172 265.476 289.551 269.079 289.551 273.466V273.897C284.694 281.706 272.981 281.073 265.333 277.801C257.685 274.529 259.311 269.2 252.496 266.329C249.944 265.279 247.599 263.784 245.57 261.913C245.215 259.62 245.188 257.288 245.49 254.988Z" fill="#7E57C2"/>
<path opacity="0.3" d="M245.49 254.988C245.801 253.498 245.801 251.961 245.49 250.471C245.396 250.132 245.378 249.776 245.437 249.43C245.496 249.083 245.631 248.753 245.831 248.464L246.684 250.23C246.918 250.72 247.291 251.129 247.757 251.407C248.223 251.685 248.76 251.819 249.302 251.792C249.844 251.766 250.366 251.579 250.802 251.257C251.238 250.934 251.569 250.49 251.753 249.979L251.823 249.789C252.291 248.482 253.136 247.344 254.251 246.516C255.365 245.689 256.7 245.211 258.086 245.142L261.097 244.971C261.538 244.949 261.975 245.064 262.349 245.299C262.722 245.534 263.014 245.879 263.185 246.286C266.196 253.653 273.914 261.833 279.836 265.577C284.172 265.476 289.551 269.079 289.551 273.466V273.897C284.694 281.706 272.981 281.073 265.333 277.801C257.685 274.529 259.311 269.2 252.496 266.329C249.944 265.279 247.599 263.784 245.57 261.913C245.215 259.62 245.188 257.288 245.49 254.988Z" fill="black"/>
<path opacity="0.2" d="M245.49 254.988C245.801 253.498 245.801 251.961 245.49 250.471C245.396 250.132 245.378 249.776 245.437 249.43C245.496 249.083 245.631 248.753 245.831 248.464L246.684 250.23C246.918 250.72 247.291 251.129 247.757 251.407C248.223 251.685 248.76 251.819 249.302 251.792C249.844 251.766 250.366 251.579 250.802 251.257C251.238 250.934 251.569 250.49 251.753 249.979L251.823 249.789C252.291 248.482 253.136 247.344 254.251 246.516C255.365 245.689 256.7 245.211 258.086 245.142L261.097 244.971C261.538 244.949 261.975 245.064 262.349 245.299C262.722 245.534 263.014 245.879 263.185 246.286C266.196 253.653 273.914 261.833 279.836 265.577C284.172 265.476 289.551 269.079 289.551 273.466V273.897C284.694 281.706 272.981 281.073 265.333 277.801C257.685 274.529 259.311 269.2 252.496 266.329C249.944 265.279 247.599 263.784 245.57 261.913C245.215 259.62 245.188 257.288 245.49 254.988Z" fill="white"/>
<path d="M260.294 261.07C260.115 261.201 259.898 261.268 259.676 261.262C259.455 261.256 259.241 261.177 259.07 261.037C258.898 260.898 258.777 260.705 258.726 260.489C258.675 260.274 258.697 260.048 258.788 259.846C259.935 258.317 261.456 257.11 263.206 256.341C264.955 255.573 266.873 255.269 268.775 255.46C269.186 255.971 269.598 256.463 270.029 256.955C266.426 256.764 263.194 257.537 260.294 261.07Z" fill="white"/>
<path d="M257.283 257.688C257.114 257.874 256.88 257.99 256.629 258.013C256.378 258.035 256.128 257.962 255.928 257.808C255.829 257.732 255.746 257.636 255.684 257.527C255.623 257.419 255.583 257.299 255.568 257.174C255.553 257.05 255.563 256.924 255.597 256.804C255.632 256.683 255.689 256.571 255.767 256.473C256.977 254.896 258.571 253.654 260.396 252.867C262.222 252.08 264.218 251.774 266.196 251.977C266.557 252.519 266.938 253.061 267.34 253.603C263.636 253.342 260.264 254.054 257.283 257.688Z" fill="white"/>
<path d="M263.435 264.372C263.266 264.559 263.032 264.675 262.781 264.697C262.53 264.719 262.28 264.646 262.08 264.493C261.891 264.329 261.769 264.1 261.739 263.851C261.709 263.603 261.774 263.352 261.92 263.148C263.036 261.651 264.514 260.461 266.215 259.691C267.915 258.92 269.784 258.594 271.645 258.742C272.137 259.264 272.649 259.745 273.141 260.257C269.548 260.066 266.326 260.839 263.435 264.372Z" fill="white"/>
<path d="M279.755 265.627C284.091 265.526 289.471 269.13 289.471 273.516V273.947C284.683 281.646 273.251 281.134 265.593 277.962C266.185 267.484 276.282 265.587 279.755 265.627Z" fill="white"/>
<path d="M266.647 267.524C266.469 267.656 266.252 267.726 266.03 267.722C265.808 267.718 265.594 267.641 265.42 267.502C265.247 267.363 265.125 267.171 265.073 266.955C265.02 266.739 265.041 266.512 265.132 266.309C266.251 264.808 267.733 263.616 269.44 262.845C271.146 262.074 273.021 261.75 274.887 261.903C275.5 262.445 276.102 262.907 276.704 263.439C272.98 263.168 269.658 263.88 266.647 267.524Z" fill="white"/>
<path d="M212.499 134.456L250.789 155.794C254.265 157.731 257.045 160.711 258.736 164.313C260.427 167.914 260.944 171.957 260.213 175.868L252.776 215.844L258.869 235.205C253.609 242.231 241.545 242.613 241.545 242.613C234.81 229.113 229.862 223.372 226.038 212.051C222.214 200.729 219.665 192.931 219.665 192.931L187.868 184.239C180.594 182.263 174.08 178.151 169.167 172.434C164.254 166.718 161.168 159.66 160.307 152.171C159.765 147.364 159.735 144.082 159.735 144.082L212.499 134.456Z" fill="#263238"/>
<path opacity="0.2" d="M212.208 145.216C212.199 149.49 210.681 153.624 207.922 156.888L234.941 173.8C238.908 176.282 241.845 180.114 243.211 184.59L252.776 215.844L244.155 181.007C243.159 177.001 240.638 173.544 237.129 171.372L212.177 155.955C214.727 149.602 212.208 145.216 212.208 145.216Z" fill="black"/>
<path d="M181.937 160.17C181.923 160.339 181.94 160.509 181.987 160.672C182.034 160.812 182.101 160.944 182.188 161.064C182.287 161.206 182.402 161.337 182.529 161.455C182.686 161.596 182.858 161.721 183.041 161.827L211.063 178.106C211.319 178.25 211.588 178.367 211.866 178.457L212.177 178.558L212.589 178.658L213.081 178.739H213.201C213.432 178.739 213.663 178.739 213.884 178.739H213.994C214.225 178.739 214.446 178.739 214.677 178.739H214.777C214.998 178.739 215.219 178.678 215.429 178.628H215.55L216.112 178.457H216.212C216.428 178.379 216.636 178.281 216.835 178.166L263.064 151.479C263.252 151.37 263.429 151.246 263.596 151.107L263.726 150.957C263.812 150.875 263.892 150.787 263.967 150.696C264.001 150.638 264.032 150.577 264.058 150.515C264.111 150.433 264.155 150.346 264.188 150.254C264.188 150.194 264.188 150.124 264.188 150.063C264.193 149.977 264.193 149.889 264.188 149.803V151.449C264.193 151.532 264.193 151.616 264.188 151.699C264.188 151.77 264.188 151.83 264.188 151.89C264.153 151.984 264.109 152.075 264.058 152.161C264.058 152.211 264.007 152.272 263.967 152.332C263.927 152.392 263.807 152.512 263.726 152.603C263.646 152.693 263.646 152.703 263.596 152.743C263.432 152.885 263.254 153.01 263.064 153.115L216.835 179.812C216.634 179.923 216.426 180.021 216.212 180.104H216.112C215.928 180.171 215.74 180.228 215.55 180.274H215.429C215.215 180.326 214.997 180.363 214.777 180.385H214.677C214.449 180.4 214.221 180.4 213.994 180.385H213.884C213.656 180.399 213.429 180.399 213.201 180.385H213.081C212.915 180.365 212.751 180.335 212.589 180.294L212.177 180.194L211.866 180.104C211.589 180.009 211.321 179.892 211.063 179.752L183.041 163.463C182.856 163.36 182.684 163.235 182.529 163.091C182.402 162.977 182.287 162.849 182.188 162.71V162.66C182.097 162.543 182.029 162.41 181.987 162.268C181.972 162.145 181.972 162.02 181.987 161.897V160.12L181.937 160.17Z" fill="#E0E0E0"/>
<path opacity="0.2" d="M181.937 160.17C181.923 160.339 181.94 160.509 181.987 160.672C182.034 160.812 182.101 160.944 182.188 161.064C182.287 161.206 182.402 161.337 182.529 161.455C182.686 161.596 182.858 161.721 183.041 161.827L211.063 178.106C211.319 178.25 211.588 178.367 211.866 178.457L212.177 178.558L212.589 178.658L213.081 178.739H213.201C213.432 178.739 213.663 178.739 213.884 178.739H213.994C214.225 178.739 214.446 178.739 214.677 178.739H214.777C214.998 178.739 215.219 178.678 215.429 178.628H215.55L216.112 178.457H216.212C216.428 178.379 216.636 178.281 216.835 178.166L263.064 151.479C263.252 151.37 263.429 151.246 263.596 151.107L263.726 150.957C263.812 150.875 263.892 150.787 263.967 150.696C264.001 150.638 264.032 150.577 264.058 150.515C264.111 150.433 264.155 150.346 264.188 150.254C264.188 150.194 264.188 150.124 264.188 150.063C264.193 149.977 264.193 149.889 264.188 149.803V151.449C264.193 151.532 264.193 151.616 264.188 151.699C264.188 151.77 264.188 151.83 264.188 151.89C264.153 151.984 264.109 152.075 264.058 152.161C264.058 152.211 264.007 152.272 263.967 152.332C263.927 152.392 263.807 152.512 263.726 152.603C263.646 152.693 263.646 152.703 263.596 152.743C263.432 152.885 263.254 153.01 263.064 153.115L216.835 179.812C216.634 179.923 216.426 180.021 216.212 180.104H216.112C215.928 180.171 215.74 180.228 215.55 180.274H215.429C215.215 180.326 214.997 180.363 214.777 180.385H214.677C214.449 180.4 214.221 180.4 213.994 180.385H213.884C213.656 180.399 213.429 180.399 213.201 180.385H213.081C212.915 180.365 212.751 180.335 212.589 180.294L212.177 180.194L211.866 180.104C211.589 180.009 211.321 179.892 211.063 179.752L183.041 163.463C182.856 163.36 182.684 163.235 182.529 163.091C182.402 162.977 182.287 162.849 182.188 162.71V162.66C182.097 162.543 182.029 162.41 181.987 162.268C181.972 162.145 181.972 162.02 181.987 161.897V160.12L181.937 160.17Z" fill="black"/>
<path d="M264.249 150.294C264.215 150.386 264.172 150.474 264.118 150.555C264.092 150.617 264.062 150.678 264.028 150.736C263.953 150.828 263.872 150.915 263.787 150.997L263.656 151.147C263.49 151.286 263.312 151.41 263.124 151.519L216.895 178.207C216.697 178.322 216.488 178.419 216.273 178.498H216.172L215.61 178.668H215.49C215.279 178.718 215.058 178.749 214.838 178.779H214.737C214.506 178.779 214.286 178.779 214.055 178.779H213.944C213.723 178.779 213.493 178.779 213.262 178.779H213.141L212.65 178.698L212.238 178.598L211.927 178.498C211.648 178.407 211.379 178.29 211.124 178.146L183.101 161.867C182.918 161.761 182.747 161.636 182.589 161.495C182.462 161.377 182.348 161.246 182.248 161.104C182.162 160.984 182.094 160.852 182.047 160.712C182.001 160.55 181.984 160.38 181.997 160.211C182.05 159.868 182.187 159.544 182.395 159.267C182.603 158.991 182.877 158.77 183.192 158.625L229.421 131.937C230.311 131.482 231.297 131.244 232.297 131.244C233.296 131.244 234.282 131.482 235.172 131.937L263.195 148.217C263.525 148.361 263.81 148.593 264.021 148.886C264.231 149.179 264.358 149.523 264.389 149.883C264.394 149.97 264.394 150.057 264.389 150.144C264.269 150.164 264.269 150.234 264.249 150.294Z" fill="#E0E0E0"/>
<path d="M260.404 149.843L215.46 175.778L215.279 175.858H215.179C215.064 175.9 214.947 175.934 214.827 175.958L214.587 176.008H214.416H213.974H213.513L213.222 175.958L212.86 175.858C212.752 175.827 212.647 175.783 212.549 175.727L198.096 167.327L244.486 140.569L260.404 149.843Z" fill="#E0E0E0"/>
<path d="M217.668 142.707L226.119 147.725C226.248 147.8 226.355 147.908 226.43 148.037C226.504 148.166 226.543 148.313 226.543 148.463C226.543 148.612 226.504 148.759 226.43 148.888C226.355 149.018 226.248 149.125 226.119 149.2L213.452 156.457C213.238 156.583 212.994 156.65 212.745 156.65C212.496 156.65 212.252 156.583 212.037 156.457L203.586 151.489C203.457 151.414 203.35 151.306 203.275 151.177C203.201 151.047 203.162 150.9 203.162 150.751C203.162 150.602 203.201 150.455 203.275 150.325C203.35 150.196 203.457 150.088 203.586 150.013L216.223 142.717C216.441 142.586 216.69 142.516 216.944 142.515C217.198 142.513 217.448 142.579 217.668 142.707Z" fill="#E0E0E0"/>
<path opacity="0.4" d="M260.404 149.843L215.46 175.778L215.279 175.858H215.179C215.064 175.9 214.947 175.934 214.827 175.958L214.587 176.008H214.416H213.974H213.513L213.222 175.958L212.86 175.858C212.752 175.827 212.647 175.783 212.549 175.727L198.096 167.327L244.486 140.569L260.404 149.843Z" fill="black"/>
<path opacity="0.4" d="M217.668 142.707L226.119 147.725C226.248 147.8 226.355 147.908 226.43 148.037C226.504 148.166 226.543 148.313 226.543 148.463C226.543 148.612 226.504 148.759 226.43 148.888C226.355 149.018 226.248 149.125 226.119 149.2L213.452 156.457C213.238 156.583 212.994 156.65 212.745 156.65C212.496 156.65 212.252 156.583 212.037 156.457L203.586 151.489C203.457 151.414 203.35 151.306 203.275 151.177C203.201 151.047 203.162 150.9 203.162 150.751C203.162 150.602 203.201 150.455 203.275 150.325C203.35 150.196 203.457 150.088 203.586 150.013L216.223 142.717C216.441 142.586 216.69 142.516 216.944 142.515C217.198 142.513 217.448 142.579 217.668 142.707Z" fill="black"/>
<path d="M214.285 176.551L219.073 146.119C219.196 145.287 219.506 144.494 219.978 143.799C220.451 143.104 221.075 142.525 221.803 142.104L268.353 115.005C268.538 114.895 268.746 114.83 268.961 114.816C269.176 114.802 269.391 114.839 269.588 114.925L270.702 115.477L270.321 115.617C270.446 115.872 270.492 116.159 270.451 116.44L265.644 146.932C265.518 147.763 265.207 148.555 264.734 149.249C264.262 149.944 263.64 150.524 262.914 150.947L216.363 178.046C216.266 178.095 216.166 178.135 216.062 178.166V178.618L214.988 178.086C214.719 177.942 214.505 177.714 214.378 177.437C214.251 177.159 214.219 176.848 214.285 176.551Z" fill="#E0E0E0"/>
<path opacity="0.3" d="M214.285 176.551L219.073 146.119C219.196 145.287 219.506 144.494 219.978 143.799C220.451 143.104 221.075 142.525 221.803 142.104L268.353 115.005C268.538 114.895 268.746 114.83 268.961 114.816C269.176 114.802 269.391 114.839 269.588 114.925L270.702 115.477L270.321 115.617C270.446 115.872 270.492 116.159 270.451 116.44L265.644 146.932C265.518 147.763 265.207 148.555 264.734 149.249C264.262 149.944 263.64 150.524 262.914 150.947L216.363 178.046C216.266 178.095 216.166 178.135 216.062 178.166V178.618L214.988 178.086C214.719 177.942 214.505 177.714 214.378 177.437C214.251 177.159 214.219 176.848 214.285 176.551Z" fill="black"/>
<path d="M222.736 142.576L269.287 115.477C269.517 115.346 269.78 115.283 270.044 115.294C270.309 115.306 270.565 115.391 270.783 115.54C271.002 115.69 271.174 115.898 271.28 116.14C271.387 116.383 271.423 116.65 271.385 116.912L266.647 147.404C266.521 148.234 266.211 149.026 265.738 149.721C265.266 150.416 264.643 150.996 263.917 151.418L217.367 178.518C217.138 178.651 216.875 178.718 216.61 178.709C216.345 178.7 216.088 178.616 215.868 178.467C215.649 178.317 215.476 178.109 215.37 177.866C215.264 177.623 215.229 177.355 215.269 177.093L220.006 146.591C220.132 145.76 220.443 144.968 220.916 144.273C221.388 143.579 222.01 142.999 222.736 142.576Z" fill="#E0E0E0"/>
<path d="M245.299 143.389C244.117 144.126 243.099 145.096 242.305 146.24C241.511 147.384 240.959 148.679 240.682 150.043C240.371 152.412 241.947 153.295 244.195 151.991C245.376 151.251 246.394 150.28 247.189 149.137C247.985 147.993 248.54 146.7 248.822 145.336C249.123 142.967 247.578 142.084 245.299 143.389Z" fill="white"/>
<path d="M217.809 97.1496L230.425 107.447L238.745 93.9479L228.277 82.1547C219.073 86.1895 217.809 97.1496 217.809 97.1496Z" fill="#F28F8F"/>
<path d="M199.301 62.2818C209.217 61.1678 210.13 63.3658 216.564 69.428C222.998 75.4902 229.511 82.3554 229.511 82.3554C219.595 87.2031 218.471 98.9964 218.471 98.9964C213.071 94.811 208.505 91.4989 208.505 91.4989L199.301 62.2818Z" fill="#455A64"/>
<path opacity="0.5" d="M199.301 62.2818C209.217 61.1678 210.13 63.3658 216.564 69.428C222.998 75.4902 229.511 82.3554 229.511 82.3554C219.595 87.2031 218.471 98.9964 218.471 98.9964C213.071 94.811 208.505 91.4989 208.505 91.4989L199.301 62.2818Z" fill="white"/>
<path d="M163.088 70.1708C177.19 63.5666 187.768 62.7937 199.301 62.2919C216.564 73.4026 210.1 82.6565 209.799 97.4908C209.498 112.325 206.276 121.288 216.564 136.715C193.941 154.781 165.376 149.07 158.541 144.744C154.135 103.663 155.42 73.3223 163.088 70.1708Z" fill="#455A64"/>
<path opacity="0.7" d="M163.088 70.1708C177.19 63.5666 187.768 62.7937 199.301 62.2919C216.564 73.4026 210.1 82.6565 209.799 97.4908C209.498 112.325 206.276 121.288 216.564 136.715C193.941 154.781 165.376 149.07 158.541 144.744C154.135 103.663 155.42 73.3223 163.088 70.1708Z" fill="white"/>
<path d="M206.075 39.8296C208.276 37.7767 209.628 34.9744 209.866 31.9744C210.103 28.9744 209.21 25.9941 207.36 23.6202C208.636 22.8376 209.609 21.6452 210.12 20.2378C210.313 19.5652 210.301 18.8503 210.085 18.1846C209.87 17.5189 209.46 16.9328 208.909 16.5014C208.358 16.0701 207.691 15.8131 206.993 15.7635C206.295 15.7139 205.598 15.874 204.991 16.2231C205.216 15.1462 205.073 14.025 204.585 13.0388C204.098 12.0526 203.294 11.2584 202.301 10.7832C201.304 10.3924 200.203 10.3588 199.183 10.6881C198.164 11.0175 197.291 11.6894 196.711 12.5898C196.647 11.9139 196.367 11.2767 195.911 10.7737C195.455 10.2707 194.848 9.92892 194.182 9.79959C192.819 9.61977 191.435 9.88746 190.237 10.5624C189.013 11.1646 187.899 11.9575 186.664 12.5697C184.518 13.4103 182.282 13.9964 180 14.3161C177.712 14.6368 175.541 15.5272 173.686 16.9056C171.93 18.4011 170.675 21.5125 171.98 23.8812C171.601 23.502 171.145 23.2082 170.643 23.0195C170.141 22.8309 169.605 22.7516 169.07 22.7872C168.546 22.842 168.041 23.0084 167.587 23.275C167.134 23.5416 166.742 23.9023 166.44 24.3328C167.986 25.0354 169.451 25.8082 171.027 26.5008C169.501 26.0391 167.494 27.3338 166.902 28.7992C166.418 30.3168 166.359 31.9376 166.731 33.4864C167.701 39.4412 169.534 45.2229 172.171 50.6492C173.526 53.4495 175.343 56.3702 178.293 57.3638L206.075 39.8296Z" fill="#37474F"/>
<path d="M205.925 25.2863C203.259 27.8508 199.735 29.332 196.038 29.4415C192.556 29.4415 189.193 28.3375 185.841 27.4342C185.543 29.0619 184.735 30.5525 183.533 31.6898C182.192 32.8367 180.538 33.5567 178.785 33.7573C179.282 36.896 179.282 40.0934 178.785 43.2321C178.742 43.5622 178.608 43.8736 178.397 44.131C178.185 44.3883 177.906 44.5811 177.591 44.6874C176.457 45.0186 175.714 43.8644 175.162 42.9209C174.576 41.8276 173.737 40.8912 172.713 40.1909C172.196 39.847 171.604 39.6343 170.986 39.5713C170.369 39.5084 169.745 39.597 169.17 39.8296C168.719 40.061 168.321 40.3827 168 40.7746C167.678 41.1666 167.441 41.6204 167.303 42.1079C167.029 43.088 166.981 44.1176 167.163 45.119C167.369 46.8002 168.044 48.3896 169.11 49.7058C169.644 50.3577 170.306 50.8934 171.055 51.28C171.804 51.6667 172.625 51.896 173.466 51.954C174.287 52.0263 175.113 51.8717 175.853 51.5071C176.592 51.1425 177.218 50.582 177.661 49.8864L177.741 50.1875C177.86 50.6853 178.011 51.1748 178.193 51.6529C178.939 53.624 180.17 55.3754 181.771 56.7454C183.373 58.1154 185.294 59.0599 187.357 59.4916C189.484 59.9433 191.843 60.3648 194.242 60.7261C195.426 60.9068 196.621 61.0774 197.805 61.218C199.983 61.4798 202.179 60.8976 203.941 59.591C205.703 58.2843 206.898 56.3524 207.28 54.1922C208.855 45.0186 209.438 34.3495 205.925 25.2863Z" fill="#FFA8A7"/>
<path d="M178.153 51.6228V67.5812C179.658 69.6195 181.584 71.3094 183.801 72.5356C186.018 73.7619 188.474 74.4958 191 74.6873C192.63 74.9166 194.285 74.4947 195.607 73.513C196.035 73.1294 196.369 72.6521 196.582 72.1182C196.796 71.5844 196.883 71.0084 196.838 70.4353C196.792 69.8621 196.615 69.3073 196.319 68.814C196.024 68.3207 195.619 67.9022 195.135 67.5913C194.851 67.4059 194.617 67.1531 194.454 66.8554C194.291 66.5577 194.204 66.2244 194.202 65.885V60.696C191.803 60.3347 189.444 59.9132 187.316 59.4615C185.254 59.0298 183.333 58.0853 181.731 56.7153C180.13 55.3453 178.899 53.5939 178.153 51.6228Z" fill="#FFA8A7"/>
<path opacity="0.2" d="M188.812 62.9744C190.58 63.4371 192.383 63.756 194.202 63.9279V60.696C191.803 60.3347 189.445 59.9132 187.317 59.4615C185.382 59.0544 183.57 58.1946 182.032 56.9524C180.493 55.7102 179.27 54.1211 178.464 52.3153C178.86 54.8102 179.984 57.1324 181.696 58.9898C183.665 60.9355 186.124 62.3123 188.812 62.9744Z" fill="black"/>
<path d="M198.989 36.8487H196.922C194.854 35.4413 192.468 34.5712 189.98 34.3171C187.491 34.063 184.979 34.4329 182.669 35.3934V37.5713L183.242 37.8724C183.552 39.2742 183.727 40.7027 183.763 42.1381C183.8 43.5533 184.366 44.9033 185.349 45.9219C186.483 46.9256 188.109 47.0059 189.595 47.026C190.796 47.1226 192.003 46.9477 193.128 46.5141C194.405 45.8213 195.368 44.6644 195.818 43.2823C196.329 41.9273 196.239 41.1344 196.871 39.5084C196.962 39.2822 197.119 39.0884 197.321 38.9523C197.523 38.8163 197.762 38.7443 198.006 38.7456C198.239 38.7479 198.465 38.8224 198.654 38.9591C198.843 39.0958 198.985 39.2877 199.059 39.5084C199.652 41.1344 199.571 41.9273 200.063 43.2823C200.464 44.6391 201.365 45.7937 202.582 46.5141C203.627 46.9455 204.759 47.121 205.884 47.026C207.314 47.1753 208.747 46.7812 209.899 45.9219C210.823 44.8749 211.346 43.5342 211.375 42.1381C211.411 40.7044 211.576 39.2768 211.866 37.8724L212.398 37.5713V35.3934C210.235 34.4256 207.853 34.0503 205.497 34.3061C203.141 34.5618 200.895 35.4393 198.989 36.8487ZM195.888 37.9628L195.798 38.7356C195.626 40.142 195.289 41.5233 194.794 42.8507C194.428 43.9489 193.67 44.8742 192.666 45.4502C191.86 45.7705 190.993 45.911 190.127 45.8617H189.665C188.432 45.9891 187.193 45.6916 186.152 45.0186C185.388 44.2013 184.958 43.1267 184.948 42.0076C184.948 41.6463 184.888 41.2749 184.857 40.8935C184.787 39.8898 184.857 37.5814 184.938 35.9354C186.118 35.6076 187.337 35.4421 188.561 35.4435C191.134 35.4547 193.652 36.1885 195.828 37.5613C195.918 37.6014 195.888 37.9628 195.888 37.9628ZM210.311 40.8634C210.311 41.2448 210.261 41.6162 210.23 41.9775C210.227 43.0849 209.824 44.1538 209.096 44.9885C208.14 45.656 206.974 45.9554 205.814 45.8316H205.423C204.609 45.88 203.795 45.7391 203.044 45.4201C202.081 44.8261 201.368 43.9021 201.037 42.8206C200.547 41.4913 200.211 40.1108 200.033 38.7055L199.953 37.9327C199.953 37.9327 199.953 37.5713 200.033 37.5011C202.042 36.1377 204.41 35.4007 206.838 35.3833C207.983 35.382 209.123 35.5477 210.22 35.8751C210.321 37.5513 210.371 39.8296 210.311 40.8634Z" fill="#7E57C2"/>
<path d="M182.67 35.3933L171.057 39.5686C171.891 39.7258 172.671 40.0918 173.325 40.6325C173.456 40.7429 182.67 37.5713 182.67 37.5713V35.3933Z" fill="#7E57C2"/>
<path d="M197.945 38.9263L203.797 46.0122L198.427 47.9192L197.945 38.9263Z" fill="#F28F8F"/>
<path d="M189.665 39.8095C189.661 40.1295 189.752 40.4435 189.927 40.7116C190.102 40.9797 190.352 41.19 190.646 41.3157C190.941 41.4413 191.266 41.4768 191.58 41.4175C191.895 41.3583 192.184 41.207 192.413 40.9828C192.641 40.7587 192.798 40.4717 192.863 40.1584C192.928 39.8451 192.899 39.5195 192.779 39.2229C192.659 38.9263 192.453 38.672 192.188 38.4923C191.923 38.3127 191.611 38.2157 191.291 38.2137C191.079 38.211 190.869 38.2503 190.673 38.3291C190.476 38.408 190.297 38.525 190.146 38.6733C189.995 38.8217 189.875 38.9984 189.792 39.1934C189.71 39.3884 189.666 39.5978 189.665 39.8095Z" fill="#37474F"/>
<path d="M203.175 39.3779C203.173 39.6975 203.266 40.0105 203.442 40.2773C203.618 40.5442 203.869 40.7528 204.163 40.877C204.458 41.0011 204.782 41.0351 205.096 40.9747C205.41 40.9143 205.699 40.7622 205.926 40.5376C206.154 40.313 206.309 40.0261 206.374 39.713C206.438 39.4 206.408 39.0749 206.287 38.7788C206.167 38.4828 205.961 38.2292 205.697 38.05C205.432 37.8707 205.12 37.774 204.801 37.772C204.589 37.7707 204.378 37.8112 204.182 37.8912C203.985 37.9712 203.806 38.0891 203.655 38.2382C203.504 38.3873 203.384 38.5647 203.302 38.7603C203.219 38.9558 203.176 39.1657 203.175 39.3779Z" fill="#37474F"/>
<path d="M202.332 32.2318L206.637 32.7236C206.564 32.2616 206.352 31.8328 206.029 31.494C205.707 31.1552 205.289 30.9225 204.831 30.8266C204.325 30.806 203.823 30.9266 203.382 31.1747C202.94 31.4228 202.577 31.7888 202.332 32.2318Z" fill="#37474F"/>
<path d="M192.375 31.6898L188.361 33.4864C188.284 33.0243 188.352 32.55 188.555 32.1279C188.758 31.7059 189.086 31.3566 189.495 31.1277C189.978 30.9349 190.507 30.8854 191.018 30.985C191.528 31.0847 192 31.3294 192.375 31.6898Z" fill="#37474F"/>
<path d="M192.636 50.9002L197.404 52.496C197.08 53.0496 196.588 53.4853 196 53.7399C195.411 53.9944 194.757 54.0544 194.132 53.9112C193.574 53.6583 193.12 53.2205 192.848 52.6719C192.575 52.1233 192.501 51.4975 192.636 50.9002Z" fill="#F28F8F"/>
<path opacity="0.3" d="M192.636 50.9002L197.404 52.496C197.08 53.0496 196.588 53.4853 196 53.7399C195.411 53.9944 194.757 54.0544 194.132 53.9112C193.574 53.6583 193.12 53.2205 192.848 52.6719C192.575 52.1233 192.501 51.4975 192.636 50.9002Z" fill="black"/>
<path d="M195.708 53.851C195.199 54.0199 194.652 54.0408 194.132 53.9112C193.69 53.7333 193.31 53.4289 193.04 53.0361C192.771 52.6432 192.623 52.1795 192.616 51.7031C193.308 51.5985 194.014 51.7628 194.589 52.1622C195.164 52.5616 195.564 53.1659 195.708 53.851Z" fill="#F28F8F"/>
<path d="M207.571 73.4729L203.496 75.3297C203.297 75.4209 203.119 75.5512 202.973 75.7127C202.826 75.8742 202.713 76.0636 202.641 76.2697C202.568 76.4757 202.539 76.6942 202.553 76.9121C202.567 77.13 202.625 77.3428 202.723 77.5378C202.879 77.8539 203.134 78.1103 203.449 78.268C203.765 78.4256 204.123 78.4758 204.469 78.411L214.506 76.6144L211.495 72.7302L207.571 73.4729Z" fill="#F28F8F"/>
<path d="M216.534 77.056L229.18 106.845C230.069 108.935 231.734 110.599 233.825 111.486C235.916 112.374 238.27 112.415 240.391 111.603C241.68 111.108 242.834 110.317 243.759 109.292C244.683 108.268 245.353 107.039 245.713 105.707C246.073 104.374 246.113 102.975 245.83 101.624C245.547 100.273 244.949 99.0084 244.084 97.9324L223.429 72.1781C222.713 71.286 221.875 70.4988 220.94 69.8395L214.647 65.3932C212.859 64.1335 210.793 63.3275 208.625 63.0446L205.553 60.7964C205.141 60.4863 204.656 60.2875 204.144 60.219C203.633 60.1504 203.112 60.2145 202.633 60.405L197.905 62.2216C198.203 62.8787 198.721 63.411 199.37 63.7263C200.019 64.0416 200.758 64.12 201.458 63.9479L203.345 63.4762L205.553 65.1022L202.683 69.1169C202.306 69.6427 202.148 70.2942 202.241 70.9344C202.335 71.5746 202.673 72.1535 203.185 72.5494L208.604 76.7147C208.85 76.9012 209.137 77.0266 209.44 77.0807C209.744 77.1348 210.056 77.116 210.351 77.0258C210.814 76.8855 211.208 76.577 211.455 76.1609C211.702 75.7448 211.784 75.2514 211.686 74.7776C212.3 75.4624 213.046 76.0169 213.879 76.4083C214.711 76.7997 215.614 77.0199 216.534 77.056Z" fill="#FFA8A7"/>
<path d="M205.594 65.1022C206.163 64.4472 206.842 63.897 207.601 63.4762L203.807 63.7572L205.594 65.1022Z" fill="#F28F8F"/>
<path d="M166.832 108.592L162.526 123.376L188.882 142.094L197.745 145.818C200.093 146.811 202.123 148.429 203.616 150.495L210.843 160.532C211.646 162.208 207.832 164.938 206.075 165.4C205.026 165.672 203.926 165.678 202.874 165.416C201.823 165.155 200.853 164.635 200.053 163.904L194.473 158.795L192.937 158.253C188.429 156.66 184.517 153.725 181.726 149.843L150.833 137.849C148.124 136.794 145.899 134.777 144.582 132.185C143.266 129.593 142.951 126.607 143.697 123.797L148.826 104.727L166.832 108.592Z" fill="#FFA8A7"/>
<path d="M166.862 110.659L174.178 88.789C174.178 88.789 174.419 68.7656 165.928 69.3879C157.437 70.0102 153.121 74.9282 146.587 104.607L146.447 105.249C152.539 109.096 159.664 110.984 166.862 110.659Z" fill="#455A64"/>
<path opacity="0.5" d="M166.862 110.659L174.178 88.789C174.178 88.789 174.419 68.7656 165.928 69.3879C157.437 70.0102 153.121 74.9282 146.587 104.607L146.447 105.249C152.539 109.096 159.664 110.984 166.862 110.659Z" fill="white"/>
<path d="M289.912 101.295L289.882 93.2754L284.502 90.174L284.523 98.0027V98.1733L289.912 101.295Z" fill="#E0E0E0"/>
<path d="M290.173 218.012L289.912 101.285L284.522 98.1834L284.783 214.72C284.757 215.02 284.807 215.321 284.93 215.595C285.053 215.869 285.245 216.107 285.486 216.286L290.805 219.528C290.584 219.347 290.41 219.113 290.3 218.849C290.19 218.585 290.146 218.298 290.173 218.012Z" fill="#7E57C2"/>
<path opacity="0.2" d="M290.173 218.012L289.912 101.285L284.522 98.1834L284.783 214.72C284.757 215.02 284.807 215.321 284.93 215.595C285.053 215.869 285.245 216.107 285.486 216.286L290.805 219.528C290.584 219.347 290.41 219.113 290.3 218.849C290.19 218.585 290.146 218.298 290.173 218.012Z" fill="white"/>
<path d="M292.653 219.428C292.498 219.514 292.337 219.587 292.171 219.648C292.339 219.592 292.5 219.518 292.653 219.428Z" fill="#455A64"/>
<path d="M289.902 93.2653V88.6484C289.945 87.7907 290.19 86.9552 290.617 86.2103C291.044 85.4654 291.642 84.8323 292.361 84.3627L432.254 3.6169C432.502 3.44164 432.791 3.33301 433.093 3.30138C433.396 3.26975 433.701 3.31617 433.98 3.43623L428.651 0.184323C428.368 0.0411779 428.051 -0.020562 427.736 0.00602655C427.42 0.0326151 427.118 0.146477 426.864 0.334868L286.971 81.0807C286.251 81.5469 285.651 82.1777 285.222 82.9211C284.793 83.6644 284.546 84.4991 284.502 85.3564V89.9733V90.164L289.882 93.2653H289.902Z" fill="#7E57C2"/>
<path opacity="0.3" d="M289.902 93.2653V88.6484C289.945 87.7907 290.19 86.9552 290.617 86.2103C291.044 85.4654 291.642 84.8323 292.361 84.3627L432.254 3.6169C432.502 3.44164 432.791 3.33301 433.093 3.30138C433.396 3.26975 433.701 3.31617 433.98 3.43623L428.651 0.184323C428.368 0.0411779 428.051 -0.020562 427.736 0.00602655C427.42 0.0326151 427.118 0.146477 426.864 0.334868L286.971 81.0807C286.251 81.5469 285.651 82.1777 285.222 82.9211C284.793 83.6644 284.546 84.4991 284.502 85.3564V89.9733V90.164L289.882 93.2653H289.902Z" fill="white"/>
<path opacity="0.2" d="M289.912 101.295L289.882 93.2754L284.502 90.174L284.523 98.0027V98.1733L289.912 101.295Z" fill="black"/>
<path d="M432.254 3.61692C433.619 2.83406 434.733 3.46637 434.733 5.04214V9.65906L289.932 93.2654V88.6485C289.975 87.7907 290.22 86.9552 290.647 86.2103C291.074 85.4654 291.672 84.8323 292.391 84.3627L432.254 3.61692Z" fill="#7E57C2"/>
<path d="M422.84 11.2549C423.562 10.8333 424.164 11.1746 424.164 12.0177C424.137 12.4759 424.003 12.9213 423.773 13.3185C423.543 13.7158 423.223 14.0539 422.84 14.306C422.117 14.7276 421.515 14.3863 421.515 13.5432C421.54 13.0845 421.673 12.6382 421.903 12.2405C422.133 11.8429 422.454 11.5052 422.84 11.2549Z" fill="white"/>
<path d="M426.874 8.92639C427.607 8.50484 428.199 8.84609 428.209 9.67915C428.184 10.1379 428.051 10.5842 427.821 10.9819C427.59 11.3795 427.27 11.7172 426.884 11.9675C426.152 12.3891 425.56 12.0478 425.56 11.2148C425.581 10.7562 425.711 10.3092 425.94 9.91115C426.168 9.51309 426.489 9.17545 426.874 8.92639Z" fill="white"/>
<path d="M430.909 6.59783C431.642 6.17628 432.234 6.5075 432.244 7.35059C432.219 7.80934 432.086 8.25566 431.855 8.65329C431.625 9.05091 431.304 9.38862 430.919 9.63897C430.186 10.0605 429.594 9.71926 429.594 8.88621C429.615 8.4276 429.745 7.98064 429.974 7.58258C430.203 7.18451 430.523 6.84689 430.909 6.59783Z" fill="white"/>
<path d="M319.029 71.867C319.571 71.5558 320.033 71.606 320.334 72.0075L321.649 74.0148C321.91 74.4163 322.412 74.4765 322.954 74.1654L434.693 9.649V17.6784L289.893 101.285V93.2553L294.188 90.7762C294.794 90.3827 295.252 89.8007 295.493 89.1202L296.788 85.5872C297.029 84.9093 297.488 84.3304 298.093 83.9412L319.029 71.867Z" fill="#E0E0E0"/>
<path d="M434.713 17.6885L434.974 134.406C434.928 135.262 434.682 136.095 434.255 136.837C433.828 137.58 433.232 138.212 432.515 138.682L292.653 219.428C291.288 220.21 290.174 219.578 290.174 218.012L289.913 101.285L434.713 17.6885Z" fill="#7E57C2"/>
<g opacity="0.4">
<path d="M434.713 17.6885L434.974 134.406C434.928 135.262 434.682 136.095 434.255 136.837C433.828 137.58 433.232 138.212 432.515 138.682L292.653 219.428C291.288 220.21 290.174 219.578 290.174 218.012L289.913 101.285L434.713 17.6885Z" fill="white"/>
</g>
<path d="M428.982 14.6072C429.985 14.0451 430.748 14.4867 430.748 15.6109C430.711 16.214 430.534 16.8002 430.231 17.323C429.928 17.8457 429.507 18.2904 429.002 18.6219L306.423 89.3811C305.419 89.9432 304.656 89.4915 304.656 88.3774C304.694 87.7734 304.873 87.1866 305.178 86.6638C305.483 86.1411 305.906 85.6968 306.413 85.3664L428.982 14.6072Z" fill="white"/>
<path d="M292.221 93.988C292.249 93.969 292.282 93.9589 292.316 93.9589C292.35 93.9589 292.383 93.969 292.412 93.988C292.502 94.0482 292.492 94.2389 292.412 94.3995L291.639 95.6641L293.646 94.4898C293.787 94.4095 293.897 94.4898 293.897 94.6303C293.892 94.7159 293.868 94.7992 293.827 94.874C293.785 94.9488 293.727 95.0131 293.656 95.0619L291.649 96.2262L292.432 96.5976C292.532 96.5976 292.542 96.8184 292.432 96.989C292.391 97.0709 292.328 97.1402 292.251 97.1897C292.225 97.2038 292.195 97.2111 292.166 97.2111C292.136 97.2111 292.107 97.2038 292.08 97.1897L290.836 96.5976H290.786V96.4972V96.3667L290.836 96.2663L292.07 94.259C292.091 94.155 292.143 94.0602 292.221 93.988Z" fill="#E0E0E0"/>
<path d="M296.617 91.4487C296.644 91.4368 296.673 91.4306 296.702 91.4306C296.732 91.4306 296.761 91.4368 296.788 91.4487L298.032 92.0408L298.082 92.1011V92.2115V92.3319L298.032 92.4222L296.798 94.4296C296.754 94.4984 296.696 94.5566 296.627 94.6002C296.6 94.6171 296.569 94.6261 296.537 94.6261C296.505 94.6261 296.473 94.6171 296.446 94.6002C296.356 94.54 296.356 94.3593 296.446 94.1887L297.219 92.9341L295.212 94.1084C295.071 94.1787 294.961 94.1084 294.961 93.9579C294.967 93.8728 294.992 93.7903 295.036 93.7171C295.08 93.6438 295.14 93.5819 295.212 93.5363L297.219 92.362L296.446 91.9907C296.336 91.9907 296.336 91.7699 296.446 91.5992C296.491 91.5369 296.55 91.4854 296.617 91.4487Z" fill="#E0E0E0"/>
<path d="M300.772 89.0499C300.894 88.9672 301.032 88.9102 301.177 88.8826C301.322 88.855 301.471 88.8573 301.615 88.8893L301.806 88.6384C301.842 88.5907 301.886 88.5499 301.936 88.518C301.978 88.5007 302.025 88.5007 302.067 88.518C302.157 88.518 302.197 88.6183 302.177 88.7388L302.077 89.5016C302.064 89.5968 302.026 89.6869 301.966 89.7625C301.931 89.8106 301.887 89.8514 301.836 89.883H301.776L301.173 90.0536C301.152 90.0596 301.13 90.0608 301.108 90.0572C301.087 90.0537 301.066 90.0454 301.048 90.0329C301.029 90.0205 301.014 90.0042 301.003 89.9852C300.992 89.9662 300.985 89.945 300.983 89.9231C300.978 89.7982 301.021 89.6762 301.103 89.5818L301.153 89.5016C301.02 89.5093 300.889 89.547 300.772 89.612C300.516 89.7843 300.303 90.0134 300.15 90.2815C299.996 90.5496 299.907 90.8494 299.889 91.1576C299.889 91.7197 300.29 91.9505 300.782 91.6595C301.149 91.4232 301.425 91.0694 301.565 90.6558C301.603 90.5446 301.677 90.4493 301.776 90.3848C301.815 90.3746 301.857 90.3746 301.896 90.3848C302.017 90.3848 302.067 90.5454 301.996 90.716C301.772 91.3452 301.345 91.8819 300.782 92.2416C300.019 92.6832 299.397 92.3319 299.397 91.4487C299.418 90.9681 299.554 90.4995 299.793 90.0821C300.032 89.6648 300.368 89.3108 300.772 89.0499Z" fill="#E0E0E0"/>
<g opacity="0.3">
<path d="M292.221 93.988C292.249 93.969 292.282 93.9589 292.316 93.9589C292.35 93.9589 292.383 93.969 292.412 93.988C292.502 94.0482 292.492 94.2389 292.412 94.3995L291.639 95.6641L293.646 94.4898C293.787 94.4095 293.897 94.4898 293.897 94.6303C293.892 94.7159 293.868 94.7992 293.827 94.874C293.785 94.9488 293.727 95.0131 293.656 95.0619L291.649 96.2262L292.432 96.5976C292.532 96.5976 292.542 96.8184 292.432 96.989C292.391 97.0709 292.328 97.1402 292.251 97.1897C292.225 97.2038 292.195 97.2111 292.166 97.2111C292.136 97.2111 292.107 97.2038 292.08 97.1897L290.836 96.5976H290.786V96.4972V96.3667L290.836 96.2663L292.07 94.259C292.091 94.155 292.143 94.0602 292.221 93.988Z" fill="black"/>
</g>
<g opacity="0.3">
<path d="M296.617 91.4487C296.644 91.4368 296.673 91.4306 296.702 91.4306C296.732 91.4306 296.761 91.4368 296.788 91.4487L298.032 92.0408L298.082 92.1011V92.2115V92.3319L298.032 92.4222L296.798 94.4296C296.754 94.4984 296.696 94.5566 296.627 94.6002C296.6 94.6171 296.569 94.6261 296.537 94.6261C296.505 94.6261 296.473 94.6171 296.446 94.6002C296.356 94.54 296.356 94.3593 296.446 94.1887L297.219 92.9341L295.212 94.1084C295.071 94.1787 294.961 94.1084 294.961 93.9579C294.967 93.8728 294.992 93.7903 295.036 93.7171C295.08 93.6438 295.14 93.5819 295.212 93.5363L297.219 92.362L296.446 91.9907C296.336 91.9907 296.336 91.7699 296.446 91.5992C296.491 91.5369 296.55 91.4854 296.617 91.4487Z" fill="black"/>
</g>
<g opacity="0.3">
<path d="M300.772 89.0499C300.894 88.9672 301.032 88.9102 301.177 88.8826C301.322 88.855 301.471 88.8573 301.615 88.8893L301.806 88.6384C301.842 88.5907 301.886 88.5499 301.936 88.518C301.978 88.5007 302.025 88.5007 302.067 88.518C302.157 88.518 302.197 88.6183 302.177 88.7388L302.077 89.5016C302.064 89.5968 302.026 89.6869 301.966 89.7625C301.931 89.8106 301.887 89.8514 301.836 89.883H301.776L301.173 90.0536C301.152 90.0596 301.13 90.0608 301.108 90.0572C301.087 90.0537 301.066 90.0454 301.048 90.0329C301.029 90.0205 301.014 90.0042 301.003 89.9852C300.992 89.9662 300.985 89.945 300.983 89.9231C300.978 89.7982 301.021 89.6762 301.103 89.5818L301.153 89.5016C301.02 89.5093 300.889 89.547 300.772 89.612C300.516 89.7843 300.303 90.0134 300.15 90.2815C299.996 90.5496 299.907 90.8494 299.889 91.1576C299.889 91.7197 300.29 91.9505 300.782 91.6595C301.149 91.4232 301.425 91.0694 301.565 90.6558C301.603 90.5446 301.677 90.4493 301.776 90.3848C301.815 90.3746 301.857 90.3746 301.896 90.3848C302.017 90.3848 302.067 90.5454 301.996 90.716C301.772 91.3452 301.345 91.8819 300.782 92.2416C300.019 92.6832 299.397 92.3319 299.397 91.4487C299.418 90.9681 299.554 90.4995 299.793 90.0821C300.032 89.6648 300.368 89.3108 300.772 89.0499Z" fill="black"/>
</g>
<path d="M374.673 82.255L374.894 161.365L298.504 205.466L298.283 126.357L374.673 82.255Z" fill="white"/>
<path d="M364.044 105.219L329.638 159.94L329.688 173.499L336.312 160.341L329.688 173.499L324.71 159.639L364.044 105.219Z" fill="#7E57C2"/>
<path opacity="0.3" d="M364.044 105.219L329.638 159.94L329.688 173.499L336.312 160.341L329.688 173.499L324.71 159.639L364.044 105.219Z" fill="black"/>
<path d="M329.638 159.94L336.312 160.341L329.688 173.499L329.638 159.94Z" fill="#7E57C2"/>
<path opacity="0.5" d="M329.638 159.94L336.312 160.341L329.688 173.499L329.638 159.94Z" fill="black"/>
<path d="M364.044 105.219L324.71 159.639L308.27 158.645L364.044 105.219Z" fill="#7E57C2"/>
<path d="M329.638 159.94L364.044 105.219L356.847 161.576L336.312 160.341L329.638 159.94Z" fill="#7E57C2"/>
<path opacity="0.3" d="M308.27 158.645L324.71 159.639L329.688 173.499L336.312 160.341L356.847 161.576L364.044 105.219L308.27 158.645Z" fill="white"/>
<path d="M428.109 24.925C429.504 24.122 430.638 24.7644 430.638 26.3703C430.592 27.2437 430.339 28.0937 429.902 28.8508C429.464 29.6079 428.853 30.2506 428.119 30.7262L318.357 94.1486C316.962 94.9515 315.827 94.3092 315.817 92.7033C315.87 91.8355 316.125 90.9921 316.563 90.2409C317 89.4896 317.608 88.8514 318.337 88.3775L428.109 24.925Z" fill="#7E57C2"/>
<g opacity="0.7">
<path d="M428.109 24.925C429.504 24.122 430.638 24.7644 430.638 26.3703C430.592 27.2437 430.339 28.0937 429.902 28.8508C429.464 29.6079 428.853 30.2506 428.119 30.7262L318.357 94.1486C316.962 94.9515 315.827 94.3092 315.817 92.7033C315.87 91.8355 316.125 90.9921 316.563 90.2409C317 89.4896 317.608 88.8514 318.337 88.3775L428.109 24.925Z" fill="white"/>
</g>
<path d="M310.397 92.7735C311.792 91.9706 312.927 92.6129 312.927 94.2188C312.881 95.0913 312.631 95.9407 312.194 96.6978C311.758 97.4548 311.149 98.098 310.417 98.5748L300.642 104.346C299.246 105.159 298.112 104.507 298.112 102.911C298.157 102.037 298.409 101.186 298.847 100.429C299.285 99.6716 299.896 99.0292 300.632 98.5547L310.397 92.7735Z" fill="#7E57C2"/>
<path d="M319.421 98.5146C320.816 97.7116 321.95 98.354 321.95 99.9599C321.905 100.834 321.653 101.684 321.215 102.442C320.777 103.199 320.166 103.841 319.431 104.316L300.411 115.417C299.016 116.229 297.882 115.587 297.872 113.981C297.918 113.108 298.17 112.258 298.608 111.501C299.046 110.744 299.657 110.101 300.391 109.625L319.421 98.5146Z" fill="#7E57C2"/>
<path d="M346.771 82.5963C348.166 81.7933 349.3 82.4357 349.3 84.0416C349.255 84.9153 349.004 85.766 348.566 86.5233C348.127 87.2807 347.516 87.9231 346.781 88.3975L327.761 99.4982C326.366 100.311 325.232 99.6688 325.222 98.0629C325.268 97.1896 325.52 96.3396 325.958 95.5825C326.396 94.8254 327.007 94.1827 327.741 93.707L346.771 82.5963Z" fill="#7E57C2"/>
<path d="M374.121 66.6779C375.516 65.875 376.651 66.5174 376.651 68.1232C376.605 68.9968 376.353 69.8471 375.915 70.6043C375.477 71.3616 374.866 72.0041 374.131 72.4792L355.112 83.5799C353.716 84.3928 352.582 83.7505 352.572 82.1446C352.619 81.2712 352.871 80.4212 353.309 79.6641C353.747 78.907 354.358 78.2643 355.092 77.7886L374.121 66.6779Z" fill="#7E57C2"/>
<path d="M401.471 50.7596C402.866 49.9567 404 50.599 404 52.2049C403.955 53.0785 403.703 53.9288 403.265 54.686C402.827 55.4432 402.215 56.0858 401.481 56.5609L382.461 67.6616C381.066 68.4745 379.932 67.8221 379.922 66.2263C379.968 65.3529 380.221 64.5029 380.658 63.7458C381.096 62.9887 381.707 62.346 382.441 61.8703L401.471 50.7596Z" fill="#7E57C2"/>
<path d="M428.821 34.8413C430.217 34.0384 431.351 34.6807 431.351 36.2866C431.305 37.1602 431.053 38.0105 430.615 38.7677C430.177 39.525 429.566 40.1675 428.831 40.6426L409.812 51.7432C408.417 52.5562 407.282 51.9038 407.272 50.308C407.319 49.4346 407.571 48.5846 408.009 47.8275C408.447 47.0704 409.058 46.4277 409.792 45.952L428.821 34.8413Z" fill="#7E57C2"/>
<g opacity="0.2">
<path d="M319.421 98.5146C320.816 97.7116 321.95 98.354 321.95 99.9599C321.905 100.834 321.653 101.684 321.215 102.442C320.777 103.199 320.166 103.841 319.431 104.316L300.411 115.417C299.016 116.229 297.882 115.587 297.872 113.981C297.918 113.108 298.17 112.258 298.608 111.501C299.046 110.744 299.657 110.101 300.391 109.625L319.421 98.5146Z" fill="white"/>
<path d="M346.771 82.5963C348.166 81.7934 349.3 82.4357 349.3 84.0416C349.255 84.9153 349.004 85.766 348.566 86.5233C348.127 87.2807 347.516 87.9231 346.781 88.3976L327.761 99.4982C326.366 100.311 325.232 99.6688 325.222 98.063C325.268 97.1896 325.52 96.3396 325.958 95.5825C326.396 94.8254 327.007 94.1827 327.741 93.707L346.771 82.5963Z" fill="white"/>
<path d="M374.121 66.678C375.516 65.875 376.651 66.5174 376.651 68.1233C376.605 68.9968 376.353 69.8471 375.915 70.6044C375.477 71.3616 374.866 72.0041 374.131 72.4792L355.112 83.5799C353.716 84.3929 352.582 83.7505 352.572 82.1446C352.619 81.2713 352.871 80.4213 353.309 79.6642C353.747 78.9071 354.358 78.2644 355.092 77.7887L374.121 66.678Z" fill="white"/>
<path d="M401.471 50.7596C402.866 49.9567 404 50.599 404 52.2049C403.955 53.0785 403.703 53.9288 403.265 54.686C402.827 55.4432 402.215 56.0858 401.481 56.5609L382.461 67.6616C381.066 68.4745 379.932 67.8221 379.922 66.2263C379.968 65.3529 380.221 64.5029 380.658 63.7458C381.096 62.9887 381.707 62.346 382.441 61.8703L401.471 50.7596Z" fill="white"/>
<path d="M428.821 34.8413C430.217 34.0384 431.351 34.6807 431.351 36.2866C431.305 37.1602 431.053 38.0105 430.615 38.7677C430.177 39.525 429.566 40.1675 428.831 40.6426L409.812 51.7432C408.417 52.5562 407.282 51.9038 407.272 50.308C407.319 49.4346 407.571 48.5846 408.009 47.8275C408.447 47.0704 409.058 46.4277 409.792 45.952L428.821 34.8413Z" fill="white"/>
</g>
<path d="M410.323 62.9744L410.333 67.8823L383.134 83.63L383.114 78.7221L410.323 62.9744Z" fill="#7E57C2"/>
<path d="M417.078 67.0995L417.088 70.0904L383.144 89.632V86.631L417.078 67.0995Z" fill="#7E57C2"/>
<g opacity="0.1">
<path d="M410.323 62.9744L410.333 67.8823L383.134 83.63L383.114 78.7221L410.323 62.9744Z" fill="white"/>
<path d="M417.078 67.0995L417.088 70.0904L383.144 89.632V86.631L417.078 67.0995Z" fill="white"/>
<path d="M411.237 88.257L411.247 91.258L383.204 107.628L383.194 104.627L411.237 88.257Z" fill="white"/>
<path d="M417.118 79.0934L417.128 82.0944L383.184 101.626L383.174 98.635L417.118 79.0934Z" fill="white"/>
<path d="M399.032 83.4594L399.042 86.4604L383.164 95.6239L383.154 92.633L399.032 83.4594Z" fill="white"/>
</g>
<path d="M415.683 123.566V126.678L384.137 145.005L384.127 141.894L415.683 123.566Z" fill="#7E57C2"/>
<path d="M429.895 109.625L429.905 112.737L384.117 139.354L384.107 136.253L429.895 109.625Z" fill="#7E57C2"/>
<g opacity="0.1">
<path d="M415.683 123.566V126.678L384.137 145.005L384.127 141.894L415.683 123.566Z" fill="white"/>
<path d="M429.895 109.625L429.905 112.737L384.117 139.354L384.107 136.253L429.895 109.625Z" fill="white"/>
</g>
<path d="M411.237 88.257L411.247 91.258L383.204 107.628L383.194 104.627L411.237 88.257Z" fill="#7E57C2"/>
<path d="M417.119 79.0934L417.129 82.0944L383.184 101.626L383.174 98.635L417.119 79.0934Z" fill="#7E57C2"/>
<path d="M399.032 83.4594L399.042 86.4604L383.164 95.624L383.154 92.633L399.032 83.4594Z" fill="#7E57C2"/>
<path d="M623.07 866.71C778.853 866.71 905.14 859.337 905.14 850.242C905.14 841.146 778.853 833.773 623.07 833.773C467.287 833.773 341 841.146 341 850.242C341 859.337 467.287 866.71 623.07 866.71Z" fill="#F5F5F5"/>
<path d="M791.899 610.883H779.329C775.82 610.879 772.454 609.483 769.973 607.001C767.491 604.519 766.095 601.154 766.091 597.644V585.06C766.095 581.55 767.491 578.185 769.973 575.703C772.454 573.221 775.82 571.825 779.329 571.821H791.899C795.41 571.825 798.777 573.221 801.261 575.702C803.745 578.184 805.144 581.549 805.152 585.06V597.644C805.144 601.155 803.745 604.52 801.261 607.002C798.777 609.483 795.41 610.879 791.899 610.883ZM779.329 575.676C776.842 575.68 774.458 576.67 772.699 578.429C770.94 580.188 769.95 582.572 769.946 585.06V597.644C769.946 600.133 770.935 602.519 772.694 604.279C774.454 606.039 776.841 607.028 779.329 607.028H791.899C794.387 607.028 796.774 606.039 798.534 604.279C800.294 602.519 801.282 600.133 801.282 597.644V585.06C801.278 582.572 800.289 580.188 798.53 578.429C796.771 576.67 794.386 575.68 791.899 575.676H779.329Z" fill="#7E57C2"/>
<g opacity="0.6">
<path d="M791.899 610.883H779.329C775.82 610.879 772.454 609.483 769.973 607.001C767.491 604.519 766.095 601.154 766.091 597.644V585.06C766.095 581.55 767.491 578.185 769.973 575.703C772.454 573.221 775.82 571.825 779.329 571.821H791.899C795.41 571.825 798.777 573.221 801.261 575.702C803.745 578.184 805.144 581.549 805.152 585.06V597.644C805.144 601.155 803.745 604.52 801.261 607.002C798.777 609.483 795.41 610.879 791.899 610.883ZM779.329 575.676C776.842 575.68 774.458 576.67 772.699 578.429C770.94 580.188 769.95 582.572 769.946 585.06V597.644C769.946 600.133 770.935 602.519 772.694 604.279C774.454 606.039 776.841 607.028 779.329 607.028H791.899C794.387 607.028 796.774 606.039 798.534 604.279C800.294 602.519 801.282 600.133 801.282 597.644V585.06C801.278 582.572 800.289 580.188 798.53 578.429C796.771 576.67 794.386 575.68 791.899 575.676H779.329Z" fill="white"/>
</g>
<path d="M784.247 602.096L765.902 583.765L771.357 578.295L784.247 591.185L807.596 567.835L813.052 573.291L784.247 602.096Z" fill="#7E57C2"/>
<path d="M514.775 470.072H503.661C500.581 470.049 497.634 468.816 495.457 466.638C493.279 464.46 492.045 461.513 492.022 458.434V447.305C492.026 444.212 493.251 441.247 495.431 439.053C497.611 436.86 500.569 435.616 503.661 435.593H514.775C517.88 435.597 520.857 436.832 523.052 439.028C525.248 441.223 526.483 444.2 526.487 447.305V458.332C526.488 459.872 526.187 461.397 525.6 462.82C525.012 464.244 524.15 465.537 523.062 466.628C521.975 467.718 520.683 468.583 519.262 469.174C517.84 469.765 516.315 470.07 514.775 470.072ZM503.661 438.939C501.46 438.939 499.35 439.813 497.792 441.367C496.235 442.922 495.358 445.031 495.354 447.232V458.332C495.358 460.533 496.235 462.642 497.792 464.196C499.35 465.751 501.46 466.624 503.661 466.624H514.775C516.975 466.624 519.084 465.751 520.639 464.196C522.194 462.64 523.068 460.531 523.068 458.332V447.203C523.068 445.003 522.194 442.894 520.639 441.339C519.084 439.784 516.975 438.91 514.775 438.91L503.661 438.939Z" fill="#7E57C2"/>
<g opacity="0.6">
<path d="M514.775 470.072H503.661C500.581 470.049 497.634 468.816 495.457 466.638C493.279 464.46 492.045 461.513 492.022 458.434V447.305C492.026 444.212 493.251 441.247 495.431 439.053C497.611 436.86 500.569 435.616 503.661 435.593H514.775C517.88 435.597 520.857 436.832 523.052 439.028C525.248 441.223 526.483 444.2 526.487 447.305V458.332C526.488 459.872 526.187 461.397 525.6 462.82C525.012 464.244 524.15 465.537 523.062 466.628C521.975 467.718 520.683 468.583 519.262 469.174C517.84 469.765 516.315 470.07 514.775 470.072ZM503.661 438.939C501.46 438.939 499.35 439.813 497.792 441.367C496.235 442.922 495.358 445.031 495.354 447.232V458.332C495.358 460.533 496.235 462.642 497.792 464.196C499.35 465.751 501.46 466.624 503.661 466.624H514.775C516.975 466.624 519.084 465.751 520.639 464.196C522.194 462.64 523.068 460.531 523.068 458.332V447.203C523.068 445.003 522.194 442.894 520.639 441.339C519.084 439.784 516.975 438.91 514.775 438.91L503.661 438.939Z" fill="white"/>
</g>
<path d="M507.996 462.289L491.79 446.083L496.605 441.253L507.996 452.644L528.639 432L533.469 436.83L507.996 462.289Z" fill="#7E57C2"/>
<path d="M841.289 453.386C829.853 450.676 819.007 445.903 809.284 439.303C799.561 445.906 788.715 450.678 777.278 453.386C773.099 454.379 768.862 455.113 764.592 455.582C764.592 455.771 764.592 455.975 764.592 456.164C764.592 495.444 782.224 522.867 809.298 544.311C836.372 522.867 854.004 495.459 854.004 456.164C854.004 455.975 854.004 455.771 854.004 455.582C849.724 455.114 845.478 454.38 841.289 453.386Z" fill="#7E57C2"/>
<path opacity="0.1" d="M809.284 439.303C799.561 445.906 788.715 450.678 777.278 453.386C773.099 454.379 768.862 455.113 764.592 455.582C764.592 455.771 764.592 455.975 764.592 456.164C764.592 495.444 782.224 522.867 809.298 544.311L809.284 439.303Z" fill="black"/>
<g opacity="0.5">
<path d="M809.284 537.182L808.091 536.164C783.694 515.273 771.721 491.734 770.266 462.056L770.193 460.427L771.794 460.15C774.092 459.758 776.391 459.292 778.602 458.696C789.095 456.21 799.13 452.086 808.338 446.475L809.298 445.879L810.258 446.475C819.468 452.084 829.503 456.207 839.994 458.696C842.235 459.234 844.519 459.699 846.803 460.15L848.418 460.427L848.33 462.056C846.876 491.734 834.888 515.288 810.506 536.164L809.284 537.182ZM774.019 463.497C775.707 490.847 786.953 512.785 809.284 532.323C831.615 512.8 842.86 490.847 844.548 463.497C842.729 463.162 840.911 462.769 839.121 462.333C828.621 459.843 818.56 455.772 809.284 450.258C800.008 455.774 789.947 459.846 779.446 462.333C777.671 462.769 775.823 463.147 774.019 463.497Z" fill="white"/>
</g>
<path opacity="0.9" d="M809.284 532.323C786.952 512.785 775.707 490.847 774.019 463.497C775.852 463.147 777.671 462.769 779.446 462.333C789.947 459.846 800.008 455.774 809.284 450.258V445.893L808.323 446.49C799.115 452.101 789.08 456.225 778.587 458.71C776.376 459.248 774.078 459.714 771.779 460.165L770.179 460.441L770.251 462.071C771.706 491.749 783.694 515.288 808.076 536.178L809.269 537.197L809.284 532.323Z" fill="#F0F0F0"/>
<g opacity="0.2">
<path d="M806.752 508.726L787.185 489.145L793.004 483.325L806.752 497.073L831.673 472.153L837.506 477.972L806.752 508.726Z" fill="#7E57C2"/>
</g>
<g opacity="0.9">
<path d="M806.752 508.726L787.185 489.145L793.004 483.325L806.752 497.073L831.673 472.153L837.506 477.972L806.752 508.726Z" fill="white"/>
</g>
<path d="M724.964 437.877H674.148V485.115H724.964V437.877Z" fill="#7E57C2"/>
<path opacity="0.3" d="M724.964 437.877H674.148V485.115H724.964V437.877Z" fill="white"/>
<path d="M747.513 437.877H722.112V485.115H747.513V437.877Z" fill="#7E57C2"/>
<path d="M707.521 447.145H691.562V485.115H707.521V447.145Z" fill="#263238"/>
<path d="M695.548 447.145H691.562V485.115H695.548V447.145Z" fill="#7E57C2"/>
<path d="M693.701 478.816H561.358V854.737H693.701V478.816Z" fill="#7E57C2"/>
<path opacity="0.6" d="M693.701 478.816H561.358V854.737H693.701V478.816Z" fill="white"/>
<path d="M691.722 478.816V534.404H662.524V546.726H691.722V594.371H662.524V606.693H691.722V654.338H662.524V666.66H691.722V714.305H662.524V726.627H691.722V774.272H662.524V786.594H691.722V854.737H754.293V478.816H691.722Z" fill="#7E57C2"/>
<path opacity="0.2" d="M691.722 478.816V534.404H662.524V546.726H691.722V594.371H662.524V606.693H691.722V654.338H662.524V666.66H691.722V714.305H662.524V726.627H691.722V774.272H662.524V786.594H691.722V854.737H754.293V478.816H691.722Z" fill="white"/>
<path d="M664.168 774.272H542.824V786.594H664.168V774.272Z" fill="#7E57C2"/>
<path d="M664.168 714.305H542.824V726.627H664.168V714.305Z" fill="#7E57C2"/>
<path d="M664.168 654.338H542.824V666.66H664.168V654.338Z" fill="#7E57C2"/>
<path d="M664.168 594.371H542.824V606.693H664.168V594.371Z" fill="#7E57C2"/>
<path d="M664.168 534.404H542.824V546.726H664.168V534.404Z" fill="#7E57C2"/>
<g opacity="0.4">
<path d="M664.168 774.272H542.824V786.594H664.168V774.272Z" fill="white"/>
<path d="M664.168 714.305H542.824V726.627H664.168V714.305Z" fill="white"/>
<path d="M664.168 654.338H542.824V666.66H664.168V654.338Z" fill="white"/>
<path d="M664.168 594.371H542.824V606.693H664.168V594.371Z" fill="white"/>
<path d="M664.168 534.404H542.824V546.726H664.168V534.404Z" fill="white"/>
</g>
<path d="M666.191 800.065H588.883V854.737H666.191V800.065Z" fill="#7E57C2"/>
<path d="M604.595 493.32H572.56V525.355H604.595V493.32Z" fill="#7E57C2"/>
<path d="M642.797 493.32H610.763V525.355H642.797V493.32Z" fill="#7E57C2"/>
<path opacity="0.7" d="M681 493.32H648.965V525.355H681V493.32Z" fill="white"/>
<path opacity="0.7" d="M604.595 554.524H572.56V586.558H604.595V554.524Z" fill="white"/>
<path d="M642.797 554.524H610.763V586.558H642.797V554.524Z" fill="#7E57C2"/>
<path opacity="0.7" d="M681 554.524H648.965V586.558H681V554.524Z" fill="white"/>
<path opacity="0.7" d="M604.595 614.491H572.56V646.525H604.595V614.491Z" fill="white"/>
<path opacity="0.7" d="M642.797 614.491H610.763V646.525H642.797V614.491Z" fill="white"/>
<path d="M681 614.491H648.965V646.525H681V614.491Z" fill="#7E57C2"/>
<path opacity="0.7" d="M604.595 674.458H572.56V706.492H604.595V674.458Z" fill="white"/>
<path d="M642.797 674.458H610.763V706.492H642.797V674.458Z" fill="#7E57C2"/>
<path opacity="0.7" d="M681 674.458H648.965V706.492H681V674.458Z" fill="white"/>
<path d="M604.595 734.439H572.56V766.474H604.595V734.439Z" fill="#7E57C2"/>
<path d="M642.797 734.439H610.763V766.474H642.797V734.439Z" fill="#7E57C2"/>
<path opacity="0.7" d="M681 734.439H648.965V766.474H681V734.439Z" fill="white"/>
<path d="M575.935 493.32H572.56V525.355H575.935V493.32Z" fill="#7E57C2"/>
<path d="M614.138 493.32H610.763V525.355H614.138V493.32Z" fill="#7E57C2"/>
<path d="M652.34 493.32H648.965V525.355H652.34V493.32Z" fill="#7E57C2"/>
<path d="M575.935 554.524H572.56V586.558H575.935V554.524Z" fill="#7E57C2"/>
<path d="M614.138 554.524H610.763V586.558H614.138V554.524Z" fill="#7E57C2"/>
<path d="M652.34 554.524H648.965V586.558H652.34V554.524Z" fill="#7E57C2"/>
<path d="M575.935 614.491H572.56V646.525H575.935V614.491Z" fill="#7E57C2"/>
<path d="M614.138 614.491H610.763V646.525H614.138V614.491Z" fill="#7E57C2"/>
<path d="M652.34 614.491H648.965V646.525H652.34V614.491Z" fill="#7E57C2"/>
<path d="M575.935 674.458H572.56V706.492H575.935V674.458Z" fill="#7E57C2"/>
<path d="M614.138 674.458H610.763V706.492H614.138V674.458Z" fill="#7E57C2"/>
<path d="M652.34 674.458H648.965V706.492H652.34V674.458Z" fill="#7E57C2"/>
<path d="M575.935 734.439H572.56V766.474H575.935V734.439Z" fill="#7E57C2"/>
<path d="M614.138 734.439H610.763V766.474H614.138V734.439Z" fill="#7E57C2"/>
<path d="M652.34 734.439H648.965V766.474H652.34V734.439Z" fill="#7E57C2"/>
<g opacity="0.2">
<path d="M575.935 493.32H572.56V525.355H575.935V493.32Z" fill="black"/>
<path d="M614.138 493.32H610.763V525.355H614.138V493.32Z" fill="black"/>
<path d="M652.341 493.32H648.966V525.355H652.341V493.32Z" fill="black"/>
<path d="M575.935 554.524H572.56V586.558H575.935V554.524Z" fill="black"/>
<path d="M614.138 554.524H610.763V586.558H614.138V554.524Z" fill="black"/>
<path d="M652.341 554.524H648.966V586.558H652.341V554.524Z" fill="black"/>
<path d="M575.935 614.491H572.56V646.525H575.935V614.491Z" fill="black"/>
<path d="M614.138 614.491H610.763V646.525H614.138V614.491Z" fill="black"/>
<path d="M652.341 614.491H648.966V646.525H652.341V614.491Z" fill="black"/>
<path d="M575.935 674.458H572.56V706.492H575.935V674.458Z" fill="black"/>
<path d="M614.138 674.458H610.763V706.492H614.138V674.458Z" fill="black"/>
<path d="M652.341 674.458H648.966V706.492H652.341V674.458Z" fill="black"/>
<path d="M575.935 734.439H572.56V766.474H575.935V734.439Z" fill="black"/>
<path d="M614.138 734.439H610.763V766.474H614.138V734.439Z" fill="black"/>
<path d="M652.341 734.439H648.966V766.474H652.341V734.439Z" fill="black"/>
</g>
<path opacity="0.4" d="M662.495 803.761H627.536V854.737H662.495V803.761Z" fill="white"/>
<path opacity="0.7" d="M627.536 803.761H592.578V854.737H627.536V803.761Z" fill="white"/>
<path d="M596.273 803.761H592.578V854.737H596.273V803.761Z" fill="#7E57C2"/>
<path opacity="0.2" d="M596.273 803.761H592.578V854.737H596.273V803.761Z" fill="black"/>
<path d="M406.305 554.553C406.907 551.737 407.789 548.988 408.939 546.348C410.146 543.438 411.514 540.528 413.012 537.619C414.511 534.709 416.082 531.8 417.682 528.89C419.282 525.98 421.043 523.071 422.672 520.365L409.812 512.16C407.775 515.258 406.044 518.255 404.283 521.383C402.523 524.511 400.908 527.668 399.352 530.912C397.795 534.156 396.442 537.531 395.118 541.096C393.715 544.854 392.739 548.758 392.209 552.734C392.077 554.093 392.043 555.459 392.107 556.822H405.985C406.024 556.058 406.131 555.298 406.305 554.553Z" fill="#FFA8A7"/>
<path d="M511.865 522.605C508.638 528.253 505.026 533.673 501.056 538.826C500.157 539.968 499.185 541.052 498.147 542.07C497.346 542.893 496.43 543.594 495.426 544.151H495.266C495.266 544.151 494.742 543.831 494.131 543.22C492.201 541.321 490.506 539.196 489.083 536.891C487.468 534.302 485.897 531.509 484.428 528.628C482.959 525.748 481.518 522.809 480.18 519.812C478.842 516.815 477.489 513.716 476.281 510.836L462.126 516.277C463.421 519.768 464.817 522.911 466.287 526.169C467.756 529.428 469.371 532.585 471.102 535.742C472.87 538.969 474.812 542.096 476.921 545.111C478.027 546.653 479.205 548.181 480.515 549.708C481.926 551.365 483.5 552.876 485.214 554.218C486.245 555.025 487.35 555.731 488.516 556.327C489.997 557.079 491.596 557.571 493.244 557.782C495.095 557.987 496.968 557.778 498.729 557.171C500.12 556.688 501.429 555.996 502.613 555.12C504.455 553.763 506.1 552.157 507.501 550.348C508.709 548.802 509.808 547.174 510.789 545.475C512.629 542.295 514.219 538.978 515.546 535.553C516.865 532.233 517.968 528.831 518.848 525.369L511.865 522.605Z" fill="#FFA8A7"/>
<path d="M492.284 534.898L476.485 546.697C476.485 546.697 475.874 546.028 474.87 544.864C474.143 544.02 473.197 542.885 472.106 541.561C465.967 534.084 456.991 520.423 456.918 513.745C456.802 503.765 467.102 502.296 478.74 512.494C483.744 516.859 486.363 524.205 488.923 528.73C489.767 530.185 490.48 531.523 491.033 532.541C491.848 533.982 492.284 534.898 492.284 534.898Z" fill="#263238"/>
<path opacity="0.5" d="M492.284 534.898L476.485 546.697C476.485 546.697 475.874 546.028 474.87 544.864C474.143 544.02 473.197 542.885 472.106 541.561C465.967 534.084 456.991 520.423 456.918 513.745C456.802 503.765 467.102 502.296 478.74 512.494C483.744 516.859 486.363 524.205 488.923 528.73C489.767 530.185 490.48 531.523 491.033 532.541C491.848 533.982 492.284 534.898 492.284 534.898Z" fill="white"/>
<path opacity="0.2" d="M456.816 514.895C460.38 512.523 462.984 518.634 470.054 523.798C473.197 526.111 480.092 541.11 479.525 544.427L476.485 546.697C476.485 546.697 456.728 524.831 456.816 514.895Z" fill="black"/>
<path d="M510.644 525.006L516.274 514.822L521.424 528.221C521.424 528.221 515.052 533.545 511.793 529.967L510.644 525.006Z" fill="#FFA8A7"/>
<path d="M522.805 514.706L525.075 524.729L521.423 528.163L516.273 514.764L522.805 514.706Z" fill="#FFA8A7"/>
<path d="M511.56 524.22C511.454 522.375 511.041 520.561 510.338 518.852C509.465 516.873 507.428 515.215 507.85 514.124C508.054 513.644 509.305 513.411 509.814 513.527C511.021 514.087 512.034 514.994 512.724 516.131C513.408 517.324 515.313 521.5 515.313 521.5L511.56 524.22Z" fill="#FFA8A7"/>
<path d="M456.001 459.045C456.001 459.045 460.366 461.082 458.344 464.34C458.842 464.679 459.264 465.118 459.584 465.628C459.905 466.138 460.116 466.709 460.205 467.305C460.294 467.901 460.258 468.508 460.101 469.09C459.943 469.671 459.667 470.214 459.289 470.683C459.289 470.683 459.537 476.677 456.001 473.2C452.466 469.723 451.404 459.961 451.404 459.961L456.001 459.045Z" fill="#263238"/>
<path d="M426.178 524.045C423.671 531 420.756 537.801 417.449 544.413C416.737 545.868 415.995 547.221 415.529 548.297C414.583 550.159 413.987 551.294 413.987 551.294L393.722 540.077C393.722 540.077 393.984 539.219 394.435 537.793C394.798 536.717 395.249 535.291 395.889 533.662C399.264 524.045 406.16 506.879 412.91 505.904C423.007 504.362 430.281 511.912 426.178 524.045Z" fill="#263238"/>
<path opacity="0.5" d="M426.178 524.045C423.671 531 420.756 537.801 417.449 544.413C416.737 545.868 415.995 547.221 415.529 548.297C414.583 550.159 413.987 551.294 413.987 551.294L393.722 540.077C393.722 540.077 393.984 539.219 394.435 537.793C394.798 536.717 395.249 535.291 395.889 533.662C399.264 524.045 406.16 506.879 412.91 505.904C423.007 504.362 430.281 511.912 426.178 524.045Z" fill="white"/>
<path d="M501.653 842.342L511.167 839.258L505.26 816.825L495.746 819.909L501.653 842.342Z" fill="#FFA8A7"/>
<path d="M511.313 838.036L500.62 841.498C500.529 841.523 500.444 841.566 500.369 841.625C500.295 841.683 500.233 841.756 500.187 841.838C500.141 841.921 500.112 842.012 500.101 842.106C500.091 842.2 500.099 842.295 500.125 842.386L502.351 851.013C502.495 851.456 502.807 851.826 503.221 852.041C503.635 852.256 504.117 852.299 504.562 852.162C508.272 850.882 509.974 850.096 514.746 848.569C517.656 847.623 530.036 843.942 534.022 842.648C538.008 841.353 536.626 837.439 534.808 837.628C526.704 838.487 516.579 839.331 513.219 838.079C512.606 837.851 511.935 837.836 511.313 838.036Z" fill="#263238"/>
<path opacity="0.2" d="M495.746 819.909L505.26 816.825L508.301 828.39L498.787 831.475L495.746 819.909Z" fill="black"/>
<path d="M472.557 592.799C472.557 592.799 486.058 674.268 490.015 702.623C494.379 733.726 511.618 824.695 511.618 824.695L493.957 829.569C493.957 829.569 468.862 741.422 461.588 711.177C453.878 678.371 436.856 592.799 436.856 592.799H472.557Z" fill="#263238"/>
<path opacity="0.4" d="M450.866 626.187C457.776 643.441 458.562 672.741 455.754 684.801C451.521 665.06 446.662 641.448 442.923 623.089C444.261 618.36 446.676 615.698 450.866 626.187Z" fill="black"/>
<path d="M493.564 829.918L512.476 824.71L512.113 816.999L490.814 824.361L493.564 829.918Z" fill="#263238"/>
<path d="M515.226 838.56C514.361 838.804 513.474 838.965 512.578 839.04C512.533 839.042 512.487 839.033 512.447 839.012C512.406 838.992 512.371 838.961 512.346 838.923C512.321 838.884 512.308 838.839 512.308 838.792C512.308 838.746 512.321 838.701 512.346 838.661C512.578 838.356 514.673 835.635 515.983 835.752C516.131 835.758 516.274 835.803 516.399 835.882C516.525 835.961 516.627 836.072 516.695 836.203C516.829 836.389 516.91 836.607 516.93 836.834C516.951 837.062 516.91 837.291 516.812 837.498C516.428 838.031 515.865 838.407 515.226 838.56ZM513.073 838.56C514.891 838.341 516.128 837.89 516.434 837.308C516.49 837.171 516.51 837.021 516.492 836.873C516.474 836.726 516.419 836.585 516.332 836.465C516.303 836.396 516.255 836.337 516.192 836.295C516.13 836.254 516.057 836.232 515.983 836.232C515.284 836.145 513.96 837.454 513.073 838.516V838.56Z" fill="#7E57C2"/>
<path d="M512.622 839.025H512.506C512.466 839.019 512.429 839.002 512.398 838.977C512.367 838.951 512.344 838.917 512.331 838.88C512.331 838.763 511.182 836.101 511.836 834.864C511.919 834.703 512.038 834.564 512.185 834.458C512.332 834.351 512.501 834.281 512.68 834.253C512.871 834.192 513.077 834.199 513.263 834.273C513.449 834.347 513.603 834.485 513.699 834.661C514.251 835.621 513.48 838.065 512.709 838.938C512.692 838.976 512.661 839.008 512.622 839.025ZM512.622 834.748C512.532 834.775 512.449 834.82 512.376 834.88C512.304 834.94 512.244 835.014 512.2 835.097C511.974 836.185 512.101 837.317 512.564 838.327C513.217 837.315 513.462 836.093 513.248 834.908C513.175 834.777 513.058 834.646 512.724 834.719L512.622 834.748Z" fill="#7E57C2"/>
<path d="M405.927 846.721H415.922L419.253 823.561H409.259L405.927 846.721Z" fill="#FFA8A7"/>
<path d="M416.562 845.557H405.316C405.123 845.555 404.935 845.623 404.788 845.749C404.641 845.875 404.544 846.049 404.516 846.241L403.192 855.13C403.163 855.362 403.184 855.598 403.254 855.821C403.325 856.044 403.443 856.25 403.601 856.423C403.759 856.596 403.952 856.732 404.168 856.823C404.384 856.914 404.617 856.956 404.851 856.948C408.764 856.876 410.67 856.643 415.602 856.643C418.642 856.643 431.604 856.963 435.736 856.963C439.868 856.963 440.1 852.802 438.427 852.438C430.601 850.751 420.97 848.423 418.278 846.197C417.803 845.782 417.193 845.554 416.562 845.557Z" fill="#263238"/>
<path opacity="0.2" d="M409.244 823.561H419.253L417.536 835.505H407.527L409.244 823.561Z" fill="black"/>
<path d="M454.445 592.29C454.445 592.29 448.713 668.726 444.581 697.371C440.071 728.722 422.076 832.668 422.076 832.668H403.76C403.76 832.668 413.172 731.297 414.787 700.28C416.533 666.587 419.923 592.363 419.923 592.363L454.445 592.29Z" fill="#263238"/>
<path d="M403.017 832.624H422.817L424.519 825.67L402.581 826.746L403.017 832.624Z" fill="#263238"/>
<path d="M419.951 847.303C419.062 847.284 418.179 847.162 417.318 846.939C417.276 846.933 417.237 846.912 417.207 846.88C417.178 846.848 417.161 846.808 417.158 846.765C417.15 846.718 417.157 846.671 417.178 846.629C417.199 846.587 417.233 846.553 417.275 846.532C417.609 846.299 420.606 844.364 421.784 844.844C421.92 844.9 422.038 844.991 422.126 845.11C422.213 845.228 422.266 845.367 422.279 845.513C422.317 845.742 422.299 845.975 422.228 846.196C422.158 846.416 422.035 846.616 421.872 846.779C421.313 847.174 420.633 847.359 419.951 847.303ZM417.987 846.605C419.748 846.968 421.072 846.91 421.566 846.445C421.675 846.339 421.754 846.207 421.798 846.062C421.841 845.917 421.846 845.763 421.813 845.615C421.809 845.544 421.785 845.474 421.744 845.415C421.703 845.356 421.646 845.31 421.581 845.281C420.941 845.019 419.209 845.863 417.944 846.605H417.987Z" fill="#7E57C2"/>
<path d="M417.362 846.954H417.26C417.227 846.935 417.2 846.907 417.182 846.874C417.164 846.84 417.156 846.802 417.158 846.765C417.158 846.648 417.158 843.768 418.278 842.793C418.414 842.668 418.576 842.574 418.752 842.519C418.928 842.464 419.114 842.448 419.297 842.473C419.489 842.478 419.673 842.551 419.817 842.678C419.961 842.806 420.055 842.981 420.082 843.171C420.213 844.262 418.54 846.357 417.493 846.954H417.362ZM419.093 842.895C418.899 842.896 418.713 842.968 418.569 843.098C417.94 844.04 417.615 845.152 417.638 846.285C418.569 845.543 419.704 843.957 419.617 843.244C419.617 843.098 419.529 842.938 419.195 842.909L419.093 842.895Z" fill="#7E57C2"/>
<path d="M472.557 592.799H419.049C418.671 588.013 419.777 572.432 418.962 552.691C418.457 538.016 416.676 523.412 413.637 509.046C413.405 507.97 413.157 506.908 412.896 505.831C412.896 505.831 415.616 505.278 419.5 504.711C422.73 504.231 426.774 503.751 430.746 503.562C438.314 503.132 445.901 503.132 453.47 503.562C456.961 503.882 460.38 504.464 463.1 505.017C466.592 505.715 468.643 506.326 468.643 506.326C468.643 506.326 481.824 536.542 472.557 592.799Z" fill="#263238"/>
<path opacity="0.5" d="M472.557 592.799H419.049C418.671 588.013 419.777 572.432 418.962 552.691C418.457 538.016 416.676 523.412 413.637 509.046C413.405 507.97 413.157 506.908 412.896 505.831C412.896 505.831 415.616 505.278 419.5 504.711C422.73 504.231 426.774 503.751 430.746 503.562C438.314 503.132 445.901 503.132 453.47 503.562C456.961 503.882 460.38 504.464 463.1 505.017C466.592 505.715 468.643 506.326 468.643 506.326C468.643 506.326 481.824 536.542 472.557 592.799Z" fill="white"/>
<path d="M438.66 516.801L444.276 509.73L445.599 508.014L448.596 509.614L455.768 515.069C461.588 510.181 458.678 505.802 457.5 504.056C456.19 503.867 454.837 503.693 453.455 503.562C445.882 503.132 438.29 503.132 430.717 503.562C429.073 503.562 427.4 503.765 425.785 503.926C426.946 506.833 428.686 509.473 430.899 511.687C433.112 513.9 435.753 515.64 438.66 516.801Z" fill="#263238"/>
<path opacity="0.7" d="M438.66 516.801L444.276 509.73L445.599 508.014L448.596 509.614L455.768 515.069C461.588 510.181 458.678 505.802 457.5 504.056C456.19 503.867 454.837 503.693 453.455 503.562C445.882 503.132 438.29 503.132 430.717 503.562C429.073 503.562 427.4 503.765 425.785 503.926C426.946 506.833 428.686 509.473 430.899 511.687C433.112 513.9 435.753 515.64 438.66 516.801Z" fill="white"/>
<path d="M431.226 478.059L437.307 483.107L445.599 489.988C445.352 491.092 445.172 492.209 445.061 493.335C444.625 497.83 445.788 501.918 452.335 503.518C452.335 503.518 460.176 508.712 448.538 509.657C448.501 510.923 448.305 512.179 447.956 513.396C446.933 511.978 445.667 510.751 444.217 509.774C431.488 509.556 429.8 503.664 429.8 503.664C434.819 498.732 432.914 485.391 431.226 478.059Z" fill="#FFA8A7"/>
<path opacity="0.2" d="M445.585 489.989C445.337 491.092 445.157 492.209 445.047 493.335C441.962 492.709 437.773 489.421 437.409 486.264C437.253 485.22 437.214 484.161 437.293 483.107L445.585 489.989Z" fill="black"/>
<path d="M428.709 467.526C430.833 477.244 431.619 483.035 437.322 487.472C439.174 488.931 441.389 489.858 443.729 490.151C446.069 490.444 448.444 490.092 450.599 489.134C452.753 488.175 454.605 486.647 455.955 484.713C457.304 482.779 458.1 480.514 458.256 478.161C459.013 469.097 455.347 454.709 445.163 451.974C442.965 451.325 440.635 451.265 438.406 451.799C436.177 452.332 434.127 453.442 432.462 455.016C430.796 456.591 429.573 458.575 428.914 460.77C428.256 462.965 428.185 465.295 428.709 467.526Z" fill="#FFA8A7"/>
<path d="M441.526 471.018C441.643 471.818 442.181 472.473 442.705 472.356C443.228 472.24 443.548 471.6 443.418 470.8C443.287 470 442.777 469.345 442.254 469.461C441.73 469.578 441.41 470.218 441.526 471.018Z" fill="#263238"/>
<path d="M450.575 469.97C450.706 470.771 451.23 471.425 451.754 471.309C452.277 471.192 452.597 470.552 452.481 469.752C452.365 468.952 451.826 468.297 451.303 468.414C450.779 468.53 450.459 469.141 450.575 469.97Z" fill="#263238"/>
<path d="M449.033 470.683C450.366 473.015 452.005 475.158 453.906 477.055C453.412 477.51 452.823 477.85 452.181 478.052C451.54 478.253 450.862 478.31 450.197 478.219L449.033 470.683Z" fill="#F28F8F"/>
<path d="M448.349 481.129C447.412 481.144 446.482 480.968 445.617 480.61C444.751 480.252 443.968 479.721 443.315 479.048C443.292 479.026 443.274 478.999 443.262 478.969C443.25 478.939 443.244 478.907 443.245 478.875C443.246 478.843 443.253 478.811 443.267 478.782C443.28 478.753 443.3 478.727 443.324 478.706C443.348 478.685 443.377 478.669 443.407 478.659C443.438 478.649 443.47 478.646 443.502 478.65C443.534 478.653 443.565 478.663 443.593 478.679C443.621 478.695 443.646 478.717 443.665 478.743C444.387 479.457 445.264 479.997 446.227 480.319C447.19 480.642 448.215 480.74 449.222 480.605C449.253 480.605 449.283 480.611 449.311 480.623C449.339 480.634 449.365 480.652 449.387 480.673C449.408 480.695 449.425 480.72 449.437 480.749C449.449 480.777 449.455 480.807 449.455 480.838C449.455 480.868 449.449 480.899 449.437 480.927C449.425 480.955 449.408 480.981 449.387 481.002C449.365 481.024 449.339 481.041 449.311 481.053C449.283 481.064 449.253 481.071 449.222 481.071C448.933 481.108 448.641 481.128 448.349 481.129Z" fill="#263238"/>
<path d="M439.548 468.516C439.472 468.537 439.391 468.537 439.315 468.516C439.207 468.454 439.126 468.353 439.091 468.234C439.056 468.114 439.068 467.986 439.126 467.875C439.475 467.215 439.982 466.65 440.601 466.232C441.22 465.813 441.932 465.553 442.676 465.475C442.738 465.471 442.8 465.48 442.859 465.5C442.918 465.521 442.972 465.554 443.018 465.596C443.065 465.638 443.102 465.689 443.128 465.745C443.154 465.802 443.168 465.864 443.17 465.926C443.174 465.988 443.165 466.051 443.145 466.11C443.124 466.169 443.092 466.223 443.05 466.269C443.007 466.315 442.957 466.352 442.9 466.378C442.843 466.404 442.782 466.419 442.719 466.421C442.138 466.489 441.583 466.699 441.101 467.031C440.619 467.363 440.226 467.808 439.955 468.326C439.909 468.39 439.847 468.44 439.776 468.473C439.704 468.506 439.626 468.521 439.548 468.516Z" fill="#263238"/>
<path d="M455.26 466.377C455.183 466.375 455.108 466.355 455.04 466.32C454.972 466.285 454.913 466.235 454.867 466.173C454.549 465.673 454.122 465.251 453.618 464.939C453.114 464.627 452.547 464.432 451.957 464.369C451.831 464.366 451.711 464.314 451.622 464.225C451.532 464.135 451.481 464.015 451.477 463.889C451.477 463.762 451.528 463.64 451.618 463.55C451.708 463.46 451.83 463.409 451.957 463.409C452.715 463.463 453.449 463.692 454.103 464.078C454.757 464.465 455.312 464.998 455.725 465.635C455.795 465.74 455.822 465.868 455.8 465.993C455.778 466.117 455.71 466.229 455.609 466.304C455.558 466.339 455.501 466.363 455.441 466.375C455.381 466.388 455.32 466.388 455.26 466.377Z" fill="#263238"/>
<path d="M426.076 503.344C426.325 503.309 426.578 503.346 426.807 503.449C427.036 503.552 427.231 503.717 427.371 503.925C431.284 509.919 458.823 552.661 460.176 569.915C460.7 576.593 454.968 591.636 451.317 600.466C450.515 602.389 449.091 603.986 447.274 605.004C445.457 606.022 443.351 606.402 441.293 606.082L419.937 602.736C419.468 602.662 419.019 602.495 418.617 602.244C418.215 601.993 417.868 601.664 417.596 601.275C417.324 600.886 417.134 600.447 417.036 599.983C416.938 599.519 416.935 599.04 417.027 598.575C417.814 594.31 418.184 589.978 418.133 585.642C418.133 574.44 417.507 544.369 417.507 544.369C417.507 544.369 426.236 527.508 415.82 506.544C415.728 506.355 415.682 506.148 415.687 505.938C415.691 505.728 415.745 505.522 415.845 505.338C415.944 505.153 416.086 504.995 416.259 504.876C416.432 504.756 416.63 504.68 416.838 504.653L426.076 503.344Z" fill="#7E57C2"/>
<path opacity="0.1" d="M460.133 569.915C459.493 561.754 452.99 547.89 445.905 534.913C442.588 548.573 439.78 563.194 440.581 570.992C441.221 577.262 447.476 590.283 451.913 598.881C455.594 589.963 460.671 576.171 460.133 569.915Z" fill="black"/>
<path opacity="0.6" d="M454.459 551.861C453.543 549.825 452.554 547.73 451.55 545.606C446.88 545.751 442.297 545.78 438.006 545.737C435.511 531.114 430.981 516.914 424.549 503.547L417.886 504.478C424.317 517.484 428.872 531.336 431.415 545.62C425.596 545.475 420.635 545.242 417.551 545.067C417.551 546.173 417.624 548.457 417.682 551.425C421.072 551.629 426.265 551.876 432.448 552.007C434.968 569.411 434.545 587.115 431.197 604.38L437.467 605.369C440.871 587.791 441.363 569.773 438.922 552.036H441.221C445.483 552.123 449.95 552.05 454.459 551.861Z" fill="white"/>
<path d="M459.056 503.518C458.891 503.482 458.719 503.485 458.554 503.526C458.39 503.567 458.237 503.646 458.107 503.755C457.978 503.865 457.875 504.003 457.808 504.159C457.74 504.314 457.71 504.483 457.718 504.653C457.871 511.333 457.067 518 455.332 524.453C451.069 540.456 442.515 561.143 443.534 571.007C444.203 577.611 451.113 591.708 455.55 600.219C456.569 602.173 458.249 603.7 460.292 604.526C462.334 605.353 464.604 605.424 466.694 604.729L472.819 602.692C473.614 602.427 474.289 601.888 474.723 601.171C475.157 600.454 475.323 599.606 475.19 598.779C474.681 595.345 474.288 588.595 475.859 576.651C478.361 557.637 475.859 533.007 475.859 533.007C472.315 524.481 469.96 515.508 468.862 506.34C468.829 506.109 468.726 505.893 468.568 505.722C468.409 505.55 468.202 505.431 467.974 505.38L459.056 503.518Z" fill="#7E57C2"/>
<path opacity="0.6" d="M476.863 549.723C476.863 548.021 476.747 546.391 476.674 544.864C476.674 544.355 476.674 543.845 476.601 543.409C474.681 543.743 472.659 544.034 470.593 544.282C469.942 531.158 468.617 518.077 466.621 505.089L459.944 503.736C462.195 517.374 463.652 531.13 464.308 544.936C459.217 545.358 453.965 545.606 448.829 545.707C448.146 547.89 447.491 550.072 446.88 552.123C452.699 552.021 458.751 551.774 464.628 551.279C464.788 554.713 464.934 558.306 465.05 562.089C465.69 584.1 465.661 597.426 465.472 605.063C465.896 604.991 466.314 604.889 466.723 604.758L471.859 603.056C472.004 595.025 471.975 582.107 471.379 561.899C471.262 557.942 471.117 554.204 470.957 550.639C472.979 550.392 474.972 550.116 476.892 549.795L476.863 549.723Z" fill="white"/>
<path d="M434.456 574.629C431.822 572.752 422.221 574.542 418.045 575.444C418.045 579.444 418.133 583.038 418.133 585.627C418.133 587.46 418.133 589.119 417.987 590.632C422.075 591.461 431.561 593.149 434.456 591.49C438.82 588.988 438.442 577.48 434.456 574.629Z" fill="#7E57C2"/>
<path opacity="0.2" d="M434.456 574.629C431.822 572.752 422.221 574.542 418.045 575.444C418.045 579.444 418.133 583.038 418.133 585.627C418.133 587.46 418.133 589.119 417.987 590.632C422.075 591.461 431.561 593.149 434.456 591.49C438.82 588.988 438.442 577.48 434.456 574.629Z" fill="black"/>
<path d="M452.423 586.791C446.451 586.861 440.484 586.423 434.587 585.482L435.503 580.492C447.149 582.177 458.977 582.177 470.622 580.492L471.306 585.511C465.048 586.369 458.739 586.797 452.423 586.791Z" fill="#7E57C2"/>
<g opacity="0.2">
<path d="M452.423 586.791C446.451 586.861 440.484 586.423 434.587 585.482L435.503 580.492C447.149 582.177 458.977 582.177 470.622 580.492L471.306 585.511C465.048 586.369 458.739 586.797 452.423 586.791Z" fill="black"/>
</g>
<path d="M476.136 574.047C473.488 573.669 470.956 573.654 469.894 574.629C466.781 577.539 466.49 588.988 469.894 591.476C471.378 592.203 473.052 592.447 474.681 592.174C474.694 586.999 475.069 581.832 475.801 576.709L476.136 574.047Z" fill="#7E57C2"/>
<path opacity="0.2" d="M476.136 574.047C473.488 573.669 470.956 573.654 469.894 574.629C466.781 577.539 466.49 588.988 469.894 591.476C471.378 592.203 473.052 592.447 474.681 592.174C474.694 586.999 475.069 581.832 475.801 576.709L476.136 574.047Z" fill="black"/>
<path d="M428.913 463.584C428.913 463.584 420.039 466.261 423.414 469.839C423.414 469.839 420.155 472.531 423.312 475.106C423.312 475.106 421.523 479.732 426.702 479.47C426.702 479.47 426.455 484.94 430.412 483.049C430.412 483.049 431.459 485.086 433.612 483.442C435.765 481.798 433.118 476.168 433.118 476.168C433.118 476.168 436.9 474.524 435.649 471.047C435.649 471.047 438.966 469.592 437.264 465.228C437.264 465.228 440.013 462.827 439.068 461.14L428.913 463.584Z" fill="#263238"/>
<path d="M426.469 477.666C428.043 479.571 430.228 480.871 432.652 481.347C435.721 481.871 436.405 479.019 434.849 476.284C433.394 473.811 430.15 470.567 427.415 471.28C424.68 471.993 424.49 475.28 426.469 477.666Z" fill="#FFA8A7"/>
<path d="M456.001 455.801L426.134 464.34C426.134 464.34 421.319 449.705 435.663 446.272C449.324 442.998 456.001 455.801 456.001 455.801Z" fill="#7E57C2"/>
<path d="M437.511 454.113L425.582 457.546C425.417 457.59 425.243 457.59 425.078 457.546C424.913 457.502 424.762 457.415 424.641 457.294C424.521 457.173 424.434 457.022 424.389 456.857C424.345 456.692 424.345 456.519 424.389 456.353L425.174 453.444C425.226 453.254 425.335 453.084 425.486 452.956C425.636 452.829 425.822 452.75 426.018 452.731L437.206 451.611C437.316 451.598 437.427 451.61 437.533 451.644C437.639 451.677 437.736 451.733 437.818 451.808C437.901 451.882 437.967 451.973 438.012 452.074C438.056 452.176 438.079 452.285 438.078 452.396V453.327C438.085 453.503 438.033 453.676 437.93 453.818C437.827 453.961 437.68 454.064 437.511 454.113Z" fill="#7E57C2"/>
<path opacity="0.2" d="M437.511 454.113L425.582 457.546C425.417 457.59 425.243 457.59 425.078 457.546C424.913 457.502 424.762 457.415 424.641 457.294C424.521 457.173 424.434 457.022 424.389 456.857C424.345 456.692 424.345 456.519 424.389 456.353L425.174 453.444C425.226 453.254 425.335 453.084 425.486 452.956C425.636 452.829 425.822 452.75 426.018 452.731L437.206 451.611C437.316 451.598 437.427 451.61 437.533 451.644C437.639 451.677 437.736 451.733 437.818 451.808C437.901 451.882 437.967 451.973 438.012 452.074C438.056 452.176 438.079 452.285 438.078 452.396V453.327C438.085 453.503 438.033 453.676 437.93 453.818C437.827 453.961 437.68 454.064 437.511 454.113Z" fill="white"/>
<path d="M451.099 450.956L447.956 451.436C447.279 451.552 446.584 451.395 446.022 451C443.727 449.32 441.018 448.297 438.186 448.041C435.354 447.784 432.505 448.304 429.946 449.545C429.886 449.582 429.814 449.593 429.746 449.577C429.678 449.56 429.619 449.517 429.582 449.458C429.546 449.398 429.534 449.326 429.551 449.258C429.567 449.19 429.61 449.131 429.67 449.094C433.103 446.286 441.512 441.34 451.492 449.429C451.631 449.527 451.738 449.666 451.797 449.827C451.856 449.987 451.864 450.162 451.822 450.328C451.779 450.493 451.687 450.642 451.558 450.754C451.429 450.867 451.269 450.937 451.099 450.956Z" fill="#7E57C2"/>
<path opacity="0.2" d="M451.099 450.956L447.956 451.436C447.279 451.552 446.584 451.395 446.022 451C443.727 449.32 441.018 448.297 438.186 448.041C435.354 447.784 432.505 448.304 429.946 449.545C429.886 449.582 429.814 449.593 429.746 449.577C429.678 449.56 429.619 449.517 429.582 449.458C429.546 449.398 429.534 449.326 429.551 449.258C429.567 449.19 429.61 449.131 429.67 449.094C433.103 446.286 441.512 441.34 451.492 449.429C451.631 449.527 451.738 449.666 451.797 449.827C451.856 449.987 451.864 450.162 451.822 450.328C451.779 450.493 451.687 450.642 451.558 450.754C451.429 450.867 451.269 450.937 451.099 450.956Z" fill="white"/>
<path opacity="0.6" d="M454.59 453.633L447.316 455.379C447.159 455.419 446.992 455.407 446.843 455.344C446.693 455.281 446.568 455.171 446.487 455.03L445.934 454.069C445.877 453.965 445.846 453.848 445.841 453.729C445.837 453.61 445.861 453.491 445.91 453.383C445.959 453.274 446.033 453.178 446.126 453.103C446.218 453.028 446.327 452.975 446.443 452.949L452.83 451.625C453.455 452.26 454.043 452.93 454.59 453.633Z" fill="white"/>
<path d="M455.55 455.03C455.55 455.03 466.897 457.939 456.001 460.354C447.846 462.01 439.58 463.055 431.27 463.482L426.338 464.937C426.091 465.009 425.825 464.981 425.599 464.858C425.373 464.736 425.204 464.529 425.13 464.282V464.122C425.091 463.994 425.077 463.859 425.091 463.726C425.105 463.593 425.146 463.464 425.211 463.347C425.277 463.23 425.365 463.127 425.471 463.046C425.577 462.964 425.699 462.904 425.829 462.871L455.55 455.03Z" fill="#7E57C2"/>
<path opacity="0.2" d="M455.55 455.03C455.55 455.03 466.897 457.939 456.001 460.354C447.846 462.01 439.58 463.055 431.27 463.482L426.338 464.937C426.091 465.009 425.825 464.981 425.599 464.858C425.373 464.736 425.204 464.529 425.13 464.282V464.122C425.091 463.994 425.077 463.859 425.091 463.726C425.105 463.593 425.146 463.464 425.211 463.347C425.277 463.23 425.365 463.127 425.471 463.046C425.577 462.964 425.699 462.904 425.829 462.871L455.55 455.03Z" fill="white"/>
<path d="M475.728 542.827H446.196L431.168 578.979L432.099 579.779H461.631L476.645 543.627L475.728 542.827Z" fill="#263238"/>
<path opacity="0.4" d="M475.728 542.827H446.196L431.168 578.979L432.099 579.779H461.631L476.645 543.627L475.728 542.827Z" fill="white"/>
<path d="M461.631 579.779H432.099L447.127 543.627H476.645L461.631 579.779Z" fill="#263238"/>
<path d="M468.076 542.303H456.83L455.114 546.449L455.492 546.784H466.738L468.469 542.638L468.076 542.303Z" fill="#7E57C2"/>
<path opacity="0.5" d="M468.076 542.303H456.83L455.114 546.449L455.492 546.784H466.738L468.469 542.638L468.076 542.303Z" fill="white"/>
<path d="M466.738 546.784L468.469 542.638H457.223L455.492 546.784H466.738Z" fill="#7E57C2"/>
<path opacity="0.2" d="M466.738 546.784L468.469 542.638H457.223L455.492 546.784H466.738Z" fill="white"/>
<path d="M428.957 561.754L438.5 557.68L436.1 570.352C436.1 570.352 427.007 572.432 426.309 567.66L428.957 561.754Z" fill="#FFA8A7"/>
<path d="M447.287 561.725L441.788 572.141L436.1 570.41L438.5 557.68L447.287 561.725Z" fill="#FFA8A7"/>
<path d="M406.305 554.509H392.121C392.009 556.548 392.225 558.591 392.761 560.561C392.878 560.954 393.009 561.347 393.169 561.769C393.359 562.27 393.588 562.756 393.852 563.223C394.322 564.074 394.899 564.862 395.569 565.566C396.654 566.711 397.929 567.661 399.337 568.373C401.419 569.422 403.645 570.158 405.942 570.556C407.864 570.908 409.808 571.122 411.761 571.196C419.08 571.394 426.394 570.621 433.51 568.897L432.724 561.434C426.178 561.159 419.657 560.459 413.201 559.339C411.756 559.05 410.328 558.681 408.924 558.233C407.919 557.884 406.946 557.451 406.014 556.939C406.007 556.124 406.08 555.31 406.233 554.509H406.305Z" fill="#FFA8A7"/>
</svg>
